<?xml version="1.0" encoding="utf-8"?>
<!-- Generator: Adobe Illustrator 18.0.0, SVG Export Plug-In . SVG Version: 6.00 Build 0)  -->
<!DOCTYPE svg PUBLIC "-//W3C//DTD SVG 1.1//EN" "http://www.w3.org/Graphics/SVG/1.1/DTD/svg11.dtd">
<svg version="1.1" id="Layer_1" xmlns="http://www.w3.org/2000/svg" xmlns:xlink="http://www.w3.org/1999/xlink" x="0px" y="0px"
	 viewBox="0 0 40 47" enable-background="new 0 0 40 47" xml:space="preserve">
<g id="Bug">
	<path fill="#FFFFFF" d="M19.8,24.5c0,0-9.9-1.6-11.1-8.4c-0.6-3.6,1.3-5.7,3.1-6c1.8-0.3,5.6,1.5,7,8.7
		C20.1,25.9,19.8,24.5,19.8,24.5z"/>
	<path fill="#FFFFFF" d="M21.2,25.8c0,0,0.2,3.2,2.2,3.6c0,0-0.8,3.5-4.6,4.8c-5.6,2-7.3-0.4-7.6-1.9c-0.6-3.5,3.3-6.4,5.5-6.8
		C19.9,25.1,21.2,25.8,21.2,25.8z"/>
	<path fill="#FFFFFF" d="M23.4,22.3c-1,0.6-1.6,2.3-0.8,4.5c0.8,2.3,4.6,4.9,7.4,3c0.9-0.6,0.1-4.9-2.4-6.7
		C25.8,22,24.6,21.6,23.4,22.3z"/>
	<path fill="#FFFFFF" d="M32.2,17.7c-5.2,0.9-5.7,3.8-5.7,3.8s-0.1-4.5,2.9-6.9l0.7,0.8c0,0-1.9,1.6-1.9,2.9c0,0,2.9-1.6,3.6-1.6"/>
	<polygon fill="#FFFFFF" points="10.6,32.7 11.1,33.7 6.9,34.9 	"/>
</g>
</svg>
