<svg xmlns="http://www.w3.org/2000/svg" xmlns:xlink="http://www.w3.org/1999/xlink" version="1.1" id="Your_Icon" x="0px" y="0px" width="100px" height="100px" viewBox="0 0 100 100" enable-background="new 0 0 100 100" xml:space="preserve">
<path fill="#000000" d="M2.978,52.84c0.087,1.31,0.231,2.628,0.427,3.921l10.351-1.568c-0.152-1.004-0.264-2.03-0.332-3.049  L2.978,52.84z"/>
<path fill="#000000" d="M4.539,37.221l10.1,2.757c0.269-0.983,0.582-1.967,0.931-2.919l-9.832-3.597  C5.289,34.69,4.886,35.955,4.539,37.221z"/>
<path fill="#000000" d="M36.31,15.66l-3.911-9.71c-1.213,0.488-2.423,1.036-3.594,1.627l4.716,9.346  C34.428,16.464,35.368,16.04,36.31,15.66z"/>
<path fill="#000000" d="M51.308,13.046L51.69,2.583c-1.312-0.048-2.637-0.041-3.939,0.02l0.484,10.458  C49.25,13.013,50.283,13.008,51.308,13.046z"/>
<path fill="#000000" d="M70.688,7.332c-1.18-0.577-2.396-1.109-3.614-1.583l-3.797,9.758c0.948,0.368,1.894,0.782,2.811,1.23  L70.688,7.332z"/>
<path fill="#000000" d="M94.044,32.955l-9.786,3.718c0.361,0.949,0.687,1.927,0.967,2.907l10.064-2.883  C94.928,35.438,94.509,34.178,94.044,32.955z"/>
<path fill="#000000" d="M13.533,19.818l8.094,6.638c0.647-0.789,1.336-1.56,2.044-2.291l-7.513-7.29  C15.248,17.813,14.365,18.804,13.533,19.818z"/>
<path fill="#000000" d="M83.446,16.499l-7.439,7.367c0.72,0.726,1.416,1.49,2.067,2.27l8.027-6.722  C85.261,18.411,84.369,17.431,83.446,16.499z"/>
<path fill="#000000" d="M86.565,51.793l-0.004,0.057c-0.061,1.022-0.164,2.051-0.31,3.059l10.364,1.484  c0.185-1.292,0.318-2.609,0.396-3.917l0.01-0.186L86.565,51.793z"/>
<path fill="#000000" d="M49.951,23.143c-13.105,0-23.767,10.662-23.767,23.768c0,6.448,3.253,12.167,6.125,17.212  c2.473,4.347,4.809,8.453,4.809,12.339v9.81c0.841,6.299,6.366,11.178,12.892,11.178c6.526,0,11.921-4.879,12.762-11.178V75.183  c0.475-2.891,2.53-6.414,4.559-10.115c2.994-5.466,6.388-11.661,6.388-18.157C73.718,33.805,63.056,23.143,49.951,23.143z   M50.01,92.72c-3.678,0-6.795-2.445-7.812-5.797H57.82C56.805,90.274,53.688,92.72,50.01,92.72z M58.173,81.541H41.847v-2.716  h16.326V81.541z M63.184,62.796c-2.16,3.939-4.221,7.7-4.896,11.3h-5.971V54.611c0.961-0.771,1.587-1.939,1.587-3.266  c0-2.319-1.879-4.199-4.198-4.199s-4.199,1.88-4.199,4.199c0,1.542,0.841,2.877,2.081,3.607v19.143h-5.929  c-0.664-4.27-2.985-8.348-5.241-12.312c-2.707-4.757-5.505-9.677-5.505-14.873c0-10.498,8.541-19.039,19.038-19.039  c10.498,0,19.038,8.541,19.038,19.039C68.989,52.195,66.038,57.585,63.184,62.796z"/>
</svg>