<?xml version="1.0" encoding="UTF-8" standalone="no"?>
<svg width="151px" height="404px" viewBox="0 0 151 404" version="1.1" xmlns="http://www.w3.org/2000/svg" xmlns:xlink="http://www.w3.org/1999/xlink" xmlns:sketch="http://www.bohemiancoding.com/sketch/ns">
    <!-- Generator: Sketch 3.1.1 (8761) - http://www.bohemiancoding.com/sketch -->
    <title>LightbulbwithBug</title>
    <desc>Created with Sketch.</desc>
    <defs></defs>
    <g id="Page-1" stroke="none" stroke-width="1" fill="none" fill-rule="evenodd" sketch:type="MSPage">
        <g id="LightbulbwithBug" sketch:type="MSLayerGroup" fill="#414042">
            <rect id="Stem" sketch:type="MSShapeGroup" x="99" y="0" width="6" height="250"></rect>
            <g id="Light" transform="translate(53.000000, 250.000000)" sketch:type="MSShapeGroup">
                <path d="M73.118,40.325 L73.118,32.275 L24.867,41.188 L24.867,49.226 L73.118,40.325 L73.118,40.325 Z M73.118,21.887 L24.867,30.794 L24.867,38.839 L73.118,29.935 L73.118,21.887 L73.118,21.887 Z M69.825,20.156 C69.825,20.05 69.846,19.957 69.846,19.854 C69.846,17.898 69.523,16.028 68.954,14.252 L68.954,14.252 L68.954,14.246 C68.882,14.038 68.79,13.839 68.718,13.636 C68.596,13.289 68.47,12.94 68.317,12.613 C68.292,12.538 68.262,12.462 68.236,12.396 L68.22,12.402 C65.064,5.369 57.584,0.427 48.844,0.427 C39.354,0.427 31.338,6.254 28.739,14.251 L58.176,14.251 L27.838,19.853 L24.867,20.394 L24.867,28.445 L29.576,27.572 L69.825,20.156 L69.825,20.156 Z M56.5610342,48.1571889 C64.8369234,48.1086776 73.143,48.01 73.143,48.01 C74.556,53.178 76.756,58.672 80.246,63.713 C91.185,79.65 99.423,87.337 97.587,112.05 C95.322,136.469 77.888,153.573 48.999,153.573 C20.11,153.573 2.675,136.496 0.417,112.05 C-1.425,87.337 6.812,79.65 17.76,63.712 C21.249,58.671 23.447,53.177 24.86,48.009 L40.159,48.009 C40.1692961,48.0650566 40.8511513,48.1051013 42.0122872,48.1325672 C41.7121308,48.2620262 41.7290443,48.4869571 41.733,48.84 L29.2,87.066 C29.097,87.191 28.979,87.294 28.875,87.425 C28.477,87.935 28.565,88.674 29.075,89.072 C29.585,89.47 30.322,89.382 30.721,88.872 C32.989,85.977 36.299,85.058 40.558,86.136 C41.039,86.258 41.735,86.468 42.457,86.795 C41.75,87.905 41.4,89.165 41.455,90.444 C41.56,92.994 42.427,94.864 43.832,95.577 C44.656,95.995 45.564,95.944 46.324,95.438 C47.56,94.613 48.161,92.742 47.973,90.305 C47.858,88.824 47.213,87.508 46.109,86.428 C48.024,85.23 50.91,85.101 52.971,86.208 C52.189,87.312 51.734,88.704 51.644,90.33 C51.516,92.608 52.22,94.451 53.521,95.259 C54.352,95.776 55.351,95.801 56.196,95.32 C57.523,94.569 58.258,92.767 58.22,90.379 C58.194,88.834 57.598,87.384 56.608,86.189 C56.78,86.112 56.957,86.046 57.145,85.985 C60.652,84.868 65.762,86.841 67.654,89.22 C68.058,89.726 68.796,89.81 69.302,89.409 C69.809,89.003 69.893,88.265 69.492,87.759 C69.285,87.5 69.047,87.25 68.792,85.472 L56.5610342,48.1571889 L56.5610342,48.1571889 Z M53.9945652,48.1705059 C50.3395579,48.186813 46.8633199,48.1900197 44.3095609,48.1668471 C44.2825083,48.4673756 44.1120633,49.1111128 43.961,49.571 L32.539,84.417 C34.953,83.235 37.855,83.035 41.135,83.866 C42.246,84.146 43.242,84.525 44.102,84.984 C45.64,83.757 47.668,83.069 49.817,83.069 L54.744,84.53 C55.252,84.208 55.813,83.947 56.434,83.75 C59.297,82.839 62.805,83.465 65.612,84.833 L54.054,49.569 C53.8845872,49.0532505 53.6942803,48.4671579 53.9945652,48.1705059 L53.9945652,48.1705059 Z" id="Shape"></path>
            </g>
            <g id="Bug" transform="translate(0.000000, 370.000000)" sketch:type="MSShapeGroup">
                <path d="M12.771,14.46 C12.771,14.46 2.888,12.814 1.689,6.03 C1.057,2.455 3.01,0.31 4.77,-0.002 C6.598,-0.326 10.359,1.524 11.751,8.692 C13.144,15.86 12.771,14.46 12.771,14.46 L12.771,14.46 Z" id="Shape"></path>
                <path d="M14.188,15.843 C14.188,15.843 14.416,19.028 16.339,19.484 C16.339,19.484 15.508,22.962 11.691,24.298 C6.086,26.262 4.383,23.889 4.119,22.397 C3.495,18.863 7.394,16.038 9.629,15.643 C12.933,15.059 14.188,15.843 14.188,15.843 L14.188,15.843 Z" id="Shape"></path>
                <path d="M16.379,12.33 C15.35,12.945 14.79,14.617 15.578,16.836 C16.407,19.168 20.208,21.755 22.941,19.862 C23.808,19.261 23.055,14.992 20.509,13.21 C18.795,12.011 17.573,11.617 16.379,12.33 L16.379,12.33 Z" id="Shape"></path>
                <path d="M25.196,7.701 C20.006,8.555 19.455,11.48 19.455,11.48 C19.455,11.48 19.391,6.967 22.317,4.565 L23.007,5.344 C23.007,5.344 21.069,6.959 21.069,8.25 C21.069,8.25 23.975,6.635 24.621,6.635" id="Shape"></path>
                <path d="M3.614,22.725 L4.067,23.745 L-0.121,24.944 L3.614,22.725 Z" id="Shape"></path>
            </g>
        </g>
    </g>
</svg>