<?xml version="1.0" encoding="utf-8"?>
<!-- Generator: Adobe Illustrator 17.0.2, SVG Export Plug-In . SVG Version: 6.00 Build 0)  -->
<!DOCTYPE svg PUBLIC "-//W3C//DTD SVG 1.1//EN" "http://www.w3.org/Graphics/SVG/1.1/DTD/svg11.dtd">
<svg version="1.1" id="Calque_1" xmlns="http://www.w3.org/2000/svg" xmlns:xlink="http://www.w3.org/1999/xlink" x="0px" y="0px"
	 width="64.103px" height="100px" viewBox="0 0 64.103 100" enable-background="new 0 0 64.103 100" xml:space="preserve">
<path d="M47.799,26.052v-5.257l-31.506,5.82v5.249L47.799,26.052z M47.799,14.012l-31.506,5.816v5.253l31.506-5.814V14.012z
	 M45.649,12.882c0-0.07,0.013-0.13,0.013-0.197c0-1.277-0.211-2.498-0.582-3.658l0,0V9.023c-0.047-0.136-0.107-0.266-0.154-0.398
	c-0.08-0.226-0.162-0.455-0.262-0.668c-0.017-0.049-0.036-0.099-0.053-0.142L44.6,7.819C42.539,3.227,37.655,0,31.948,0
	C25.751,0,20.517,3.805,18.82,9.027h19.222l-19.81,3.658l-1.94,0.353v5.257l3.075-0.57L45.649,12.882z M0.327,72.887
	C1.802,88.849,13.186,100,32.05,100c18.864,0,30.248-11.168,31.726-27.113c1.199-16.137-4.181-21.156-11.323-31.563
	c-2.279-3.291-3.716-6.879-4.638-10.254c0,0-21.491,0.255-21.538-0.001h-9.99c-0.922,3.374-2.358,6.962-4.636,10.254
	C4.503,51.73-0.875,56.749,0.327,72.887z"/>
</svg>
