<?xml version="1.0" encoding="UTF-8"?>
<svg width="445px" height="409px" viewBox="0 0 445 409" version="1.1" xmlns="http://www.w3.org/2000/svg" xmlns:xlink="http://www.w3.org/1999/xlink">
    <!-- Generator: Sketch 43.2 (39069) - http://www.bohemiancoding.com/sketch -->
    <title>ScreenShot2017-05-03at45016PM</title>
    <desc>Created with Sketch.</desc>
    <defs></defs>
    <g id="Page-1" stroke="none" stroke-width="1" fill="none" fill-rule="evenodd">
        <g id="ScreenShot2017-05-03at45016PM" fill-rule="nonzero" fill="#D2A22A">
            <g id="layer1">
                <path d="M73.1,406.8 C64.5,384.9 62,379.3 59.8,377.3 C56.8,374.6 57.6,373 61.8,373 C63.8,373 67.2,372.7 69.3,372.4 C72.3,371.9 73,372 73,373.4 C73,374.3 71.9,375.5 70.5,376 C68.2,376.9 68,377.2 69.1,379.2 C69.8,380.5 71.6,384.7 73.1,388.5 L75.8,395.5 L78.9,388.5 C82.6,380.4 83.8,376 82.1,376 C81.5,376 81,375.3 81,374.5 C81,373.3 82.5,373 88.5,373 C94.5,373 96,373.3 96,374.5 C96,375.3 95.4,376 94.8,376 C91.5,376.1 90.7,377.6 91.9,381.6 C94.3,389.3 96.2,394 96.9,394 C97.4,394 99.2,390.4 100.9,385.9 C103.8,378.5 104,377.6 102.6,376.1 C100.3,373.6 101.5,373 109.2,373 C114.6,373 116,373.3 116,374.5 C116,375.4 115.2,376.3 114.3,376.6 C113.3,376.9 111.9,377.5 111.1,377.8 C109.5,378.7 101.3,397.6 99.8,404.2 C98.7,408.9 96.9,410.3 95.3,407.8 C94.3,406.1 90.3,396.8 88,390.5 L86.1,385.5 L84,390.5 C82.8,393.3 80.8,398.4 79.5,402 C77.1,409 74.7,410.8 73.1,406.8 Z" id="Shape"></path>
                <path d="M181.8,406 C178.3,403.3 176.7,398 176.7,389.7 C176.8,384.2 177.3,382.2 179.3,379.1 C182.2,374.7 187.2,372 192.4,372 C196.6,372 197.8,373.8 196.1,377.6 C195.2,379.7 194.6,380 191.3,379.4 C188.1,378.9 187.1,379.2 185,381.5 C183,383.6 182.5,385.2 182.5,389.3 C182.5,392.2 183.1,396 183.9,397.8 C185.2,400.8 185.6,401.1 188.4,400.6 C190,400.2 192.4,399 193.6,397.9 C194.9,396.7 196.3,396.1 196.8,396.4 C199.7,398.2 192.7,406.3 187.4,407.4 C185.2,407.9 183.7,407.5 181.8,406 Z" id="Shape"></path>
                <path d="M240.7,407.3 C234.3,406.9 233.3,405 238.9,403.9 C240.7,403.5 242.6,402.8 243.2,402.2 C244.4,401 247,381.3 246.3,379.1 C246,378.2 244.8,376.5 243.8,375.4 C241.6,372.9 242,372.5 247.1,371.5 C252.1,370.6 253.1,371.9 256.4,383.9 C258,389.4 259.6,394 259.9,394 C260.3,394 262.6,389.4 265,383.8 C267.3,378.1 269.6,373.1 270.1,372.6 C270.6,372.1 273,371.5 275.5,371.4 C278.9,371.3 280.3,371.7 281,373 C282.1,375.1 280.5,377 277.3,377 C274.3,377 273.5,380.2 274.4,388.9 C275.5,400.7 275.9,401.8 279.7,403.1 C285.7,405.1 283,406.5 272.6,406.8 C263.7,407 262.9,406.9 263.2,405.3 C263.4,404.1 264.6,403.4 266.9,403.2 C270,402.9 270.2,402.7 269.6,399.8 C269.3,398.1 269,395 269,392.9 C269,390.7 268.7,389 268.3,389 C267.5,389 262.6,396.3 260,401.4 C259.2,403.1 258,404.5 257.5,404.7 C256.9,404.9 255.4,401.5 254.1,397.3 C252.8,393 251.6,388.8 251.3,388 C250.5,385.3 249.3,388.9 248.5,396.3 C247.9,402.6 248,403.3 249.9,404.7 C252.4,406.4 251.8,408.1 248.7,407.8 C247.5,407.7 243.9,407.5 240.7,407.3 Z" id="Shape"></path>
                <path d="M118.7,406.3 C117.4,405.1 118,404.4 121.3,403.2 L124.6,402 L124.8,390 C125,378 124.9,377.9 122.5,377 C121.1,376.5 120,375.4 120,374.5 C120,373.3 121.5,373 128.3,373 C132.8,373 137.5,372.7 138.7,372.4 C140.5,371.9 141.2,372.4 142.4,375.5 C144.5,380.3 144.4,381.4 142.3,380.5 C136,377.8 133.4,377.2 132.3,378.2 C131,379.2 130.5,387.1 131.6,388.2 C131.9,388.5 133.8,388.4 135.8,387.9 C140.2,386.9 141.5,387.9 140.6,391.5 C140.1,393.6 139.5,394 138.2,393.4 C135,392.1 131.2,391.8 130.6,392.9 C130.2,393.5 130.2,395.5 130.6,397.5 C131.2,400.7 131.5,401 134.5,401 C136.4,401 139,400.6 140.4,400 C143.8,398.7 144.6,400.3 142.3,403.6 C140.5,406 139.8,406.2 129.9,406.6 C124.1,406.8 119,406.7 118.7,406.3 Z" id="Shape"></path>
                <path d="M148.7,406.2 C146.2,405.7 147,402.6 149.7,402.2 C151.6,401.9 152,401 152.5,396.2 C152.8,393.1 153.3,388.4 153.6,385.8 C154.1,380.9 153.1,379.1 148.5,376.4 C143.7,373.7 152.9,371.3 162,373 C170.7,374.6 174,379.7 170.4,386 C168.8,388.6 168.8,388.8 170.9,390.9 C173.7,393.7 173.8,400.2 171.1,402.9 C167.6,406.4 157.7,407.8 148.7,406.2 Z M164.8,400.4 C167.4,398.6 167.8,393.5 165.4,392.6 C160.9,390.9 158,393.1 158,398.3 C158,402.4 160.8,403.3 164.8,400.4 Z M163.1,388 C165.7,386.6 165.7,380.5 163.2,379.1 C160.6,377.7 159,379.6 159,384 C159,389 159.8,389.7 163.1,388 Z" id="Shape"></path>
                <path d="M285.3,405.3 C284.4,403 285.9,401 288.5,401 C291.4,401 291.2,401.5 291.5,387.2 L291.7,377 L289.1,376.3 C285.3,375.4 284.8,375 285.9,373.6 C286.6,372.8 289.6,372.6 297.2,373.2 C308.5,374 310.2,375 311.5,381.6 C312.6,387.9 307.7,393.9 302.5,392.6 C299.2,391.8 299.3,390.4 302.8,388.8 C305.1,387.7 305.5,386.8 305.5,383.5 C305.5,380.1 305.1,379.4 302.9,378.6 C297.8,376.9 297.5,377.7 297.8,390.3 C298.1,401.6 298.2,401.8 300.6,402.4 C302.2,402.8 303,403.7 302.8,404.6 C302.4,406.7 286.1,407.4 285.3,405.3 Z" id="Shape"></path>
                <path d="M314.2,406.2 C312.2,405.6 312.9,403.4 315.5,402.2 C318.5,400.8 323.4,391.4 327,380 C329.4,372.4 330,371.5 332.3,371.2 C334.5,370.9 335,371.3 335.5,373.7 C336.4,378.1 340,394.1 341.1,398.1 C341.8,401.1 342.6,401.9 345.1,402.4 C346.9,402.7 348,403.5 347.8,404.2 C347.3,405.5 332,406.7 332,405.5 C332,405.1 333,404 334.1,403.1 C336.1,401.5 336.2,401.1 334.9,397.6 C333.4,393.3 332.1,392.5 328.6,393.4 C325.7,394.1 324.2,399.8 326.2,402.9 C326.9,404 327.2,405.1 327,405.3 C326.3,405.9 315.6,406.7 314.2,406.2 Z M332.8,385.8 C332.6,384 332.1,382.5 331.5,382.5 C331,382.5 330.4,384 330.2,385.8 C329.9,388.2 330.3,389 331.5,389 C332.7,389 333.1,388.2 332.8,385.8 Z" id="Shape"></path>
                <path d="M354,405.9 C354,404.4 357,402.2 360,401.5 C363.7,400.7 364.2,399.1 363.8,387.5 L363.5,378.5 L358.4,378.2 C353.5,377.9 353.2,378.1 352,381 C350.3,385.1 348,385 348.1,380.8 C348.2,379 348.5,376.4 348.9,375.1 C349.5,372.7 349.5,372.7 366,372.6 C375.1,372.6 383.2,372.3 384,372 C385.2,371.6 385.5,372.6 385.5,377 C385.5,381.1 385.1,382.5 384,382.5 C383.2,382.5 382.3,381.4 382,380 C381.5,377.7 380.9,377.5 376.5,377.5 L371.5,377.5 L371.5,389 L371.5,400.5 L374.5,401.5 C378.8,402.9 380,403.9 379.4,405.4 C379.1,406.3 375.7,406.7 366.5,406.7 C359.6,406.7 354,406.4 354,405.9 Z" id="Shape"></path>
                <path d="M206.9,403.7 C199.9,399 198.1,386 203.4,378 C205.4,374.9 206.8,374 210.9,373 C221.7,370.4 232.4,376.5 233.7,385.9 C234.4,391.3 230.1,400.7 225.5,403.8 C220.6,406.9 211.6,406.9 206.9,403.7 Z M221.9,400.6 C227.2,397.8 228.5,390.5 224.9,384 C222.4,379.7 219.7,377.9 215,377.7 C210.7,377.4 207.9,381.1 207.2,387.8 C206.8,392.5 207,393 211,397.4 C215.5,402.3 217.4,402.9 221.9,400.6 Z" id="Shape"></path>
                <path d="M20.2,345.2 C20.8,343.6 219.9,2.5 221.2,0.7 C222.4,-0.9 233.1,17 319.5,165.2 C372.8,256.7 418.3,334.8 420.7,338.8 L425,346 L222.4,346 C111,346 20,345.6 20.2,345.2 Z M418.7,342.3 C418.4,341.8 374.9,267.3 322,176.5 C269.1,85.8 225.4,11.1 224.9,10.5 C224.4,10 224,37.1 224,80.7 L224,151.9 L228.3,152.5 C238.4,154 246.6,161.3 247.7,169.8 L248.3,174 L222.6,174 C197.5,174 197,174 197,172 C197,163.5 206.3,154.6 217.3,152.6 L221,151.9 L221,81 C221,41.9 220.7,10 220.3,10 C219.6,10 27.1,339.3 26.2,342.1 C26,342.6 99.5,343 222.5,343 C330.6,343 418.9,342.7 418.7,342.3 Z M244,168.9 C244,166.5 239.8,161 236.3,158.9 C233.8,157.3 230.6,156.5 225.6,156.2 C217.2,155.7 211.2,157.1 207,160.6 C204.3,162.9 201,167.8 201,169.5 C201,169.8 210.7,170 222.5,170 C237.8,170 244,169.7 244,168.9 Z" id="Shape"></path>
                <path d="M212.5,307.4 C185.4,303.2 169.1,284.2 169,256.8 C169,242.3 172.2,233.5 183.1,218.4 C188.7,210.5 195,198.9 195,196.2 C195,195.2 200.8,195 222.2,195.2 L249.3,195.5 L251.1,200.6 C253,206.3 254,208 261.8,219 C272.2,233.5 275.1,241.9 275.1,256.7 C275.1,272.9 271.1,283.5 261.7,292.9 C256.2,298.4 248.3,303 240,305.4 C234.5,307.1 218.1,308.2 212.5,307.4 Z M237.5,302.5 C260.5,296.6 273.3,278.2 271.7,253.1 C271.1,241.7 268.4,235.1 259.2,221.5 C255,215.5 250.3,207.7 248.7,204.3 L245.8,198 L222.2,198 L198.5,198 L194.8,205.8 C192.7,210 187.9,218 184,223.5 C173.8,238.1 170.9,248.6 173,264.5 C175.4,283.4 187,296.8 205.5,302.1 C213.3,304.4 229.5,304.5 237.5,302.5 Z" id="Shape"></path>
                <path d="M210.5,283.9 C210.1,283.3 210.8,281.8 211.9,280.6 C214.9,277.4 213.9,273.2 209.8,271.8 C206.4,270.6 205,268.3 205,264 C205,256.1 212.6,250 222.4,250 C228,250 228.1,250.1 229.6,253.5 C230.4,255.5 231.7,257.3 232.6,257.7 C233.7,258.1 233.9,259.1 233.5,260.9 C233,263.1 233.4,263.9 235.4,264.8 C238.2,266 240.8,272.6 239.2,274.2 C237.7,275.7 236.3,274.5 235.7,271.2 C234.9,267.3 231.2,265.6 228.3,268 C226.1,269.7 226.1,269.8 228,271.5 C229.4,272.8 230,274.6 230,277.7 C230,281.3 229.7,282 228,282 C226.4,282 226,281.3 226,278.2 C226,273.5 224.6,272 220.2,272 C216.9,272 216.9,272.1 217.1,276 C217.4,279 216.9,280.5 215,282.5 C212.4,285.2 211.5,285.6 210.5,283.9 Z M222.6,267.1 C228,264.7 230.5,261.2 228.6,259.1 C227.8,258.2 226.9,256.5 226.6,255.3 C224.6,248.9 208,256.5 208,263.8 C208,269 215,270.5 222.6,267.1 Z" id="Shape"></path>
                <path d="M234.5,255.5 C228.9,250 232.7,240 240.5,240 C245.5,240 249,243.6 249,248.8 C249,257 240,261.1 234.5,255.5 Z M243.5,253.6 C247.3,250.9 244.9,243 240.3,243 C238.3,243 235,246.7 235,249 C235,251.3 238.3,255 240.3,255 C241,255 242.5,254.4 243.5,253.6 Z" id="Shape"></path>
                <path d="M211.9,246.6 C204.2,243.9 200,238.9 200,232.4 C200,228 203,224 206.3,224 C207.3,224 208.5,222.9 209,221.6 C211.1,216 219,215.3 224.6,220.2 C230.8,225.6 232.3,232 230,242.7 L228.9,247.5 L222.2,247.7 C218.5,247.7 213.9,247.3 211.9,246.6 Z M216.8,238.3 C213.7,235.1 210.7,231.5 210.1,230.3 C208.1,226.4 203,228 203,232.5 C203,238.5 210.1,243.9 218,244 L222.4,244 L216.8,238.3 Z M227.3,237.6 C228.1,231.9 226.7,227 223.3,223.8 C216.5,217.4 209.2,220.7 213.1,228.3 C214.3,230.7 225,242 226.1,242 C226.4,242 227,240 227.3,237.6 Z" id="Shape"></path>
                <path d="M195,183.5 L195,177 L222.5,177 L250,177 L250,183.5 L250,190 L222.5,190 L195,190 L195,183.5 Z M247,184 L247,181 L222.5,181 L198,181 L198,183.3 C198,184.6 198.3,186 198.7,186.3 C199,186.7 210.1,187 223.2,187 L247,187 L247,184 Z" id="Shape"></path>
                <path d="M18.9,284.2 C13.7,280.8 6.9,273.6 4.4,268.9 C3.5,267 2.1,263.3 1.4,260.5 C-0.2,254.8 -0.5,244 0.9,244 C2.9,244 17.3,258.7 20.1,263.4 L23,268.5 L23,254.4 L23,240.4 L18.1,235.3 C11,227.9 7.7,220.4 7.2,210 C7,205.2 7.3,199.6 8,197.2 C9,193.5 9.3,193 10.6,194.1 C13.6,196.6 21.3,208.2 23.5,213.6 L25.7,219 L27.9,207.8 C29.2,201.6 31.3,192.8 32.6,188.1 L35.1,179.6 L32,173.6 C28,165.6 26.6,156.8 28,148.7 C29.2,142.4 33.7,131 35,131 C36.8,131 43,147.5 43,152.1 C43,156.5 44.6,156.3 46.4,151.7 C47.3,149.4 51.1,142.2 55,135.8 L61.9,124.1 L59.7,119.3 C57.9,115.3 57.5,112.7 57.5,104 C57.5,94 57.7,93.2 61.2,85.8 C63.2,81.5 65.3,78 65.9,78 C68.6,78 73.7,99 72.7,106.1 L72.2,110 L83.3,98.4 L94.5,86.7 L95.2,79.2 C96,70.7 99.8,61.6 104.9,55.7 C108.2,52 119.9,43.6 120.7,44.4 C121.7,45.3 118.8,59.7 116.6,65.2 C115.3,68.4 114.4,71 114.7,71 C114.9,71 117.7,69.3 120.8,67.2 C123.9,65.1 129.2,61.7 132.6,59.7 C138.7,56.1 138.7,56 139.3,50.6 C140.4,39.9 147,30.2 157.2,24.1 L161,21.8 L161,24.7 C161,29.3 158.1,39 155.1,44.6 L152.3,49.8 L158,49.3 C163.7,48.7 175,51.2 175,52.9 C175,54.1 164.2,59.6 159.1,61 C153.6,62.4 143.7,62.5 141.1,61 C139.4,60.2 137.6,60.8 130.7,64.9 C123,69.5 106,81.5 106,82.4 C106,82.6 107.9,82.1 110.3,81.3 C115.1,79.6 129.9,80 136.4,82 L140.2,83.2 L137.9,85.7 C134.4,89.4 120.4,95.8 113.2,96.9 C106.8,97.9 97.9,97.1 94.1,95.1 C92.4,94.2 91.2,95.1 84.6,102.1 C80.5,106.5 76.2,111.3 75.1,112.9 L73.1,115.6 L77.8,113.3 C85.4,109.6 101.9,107.5 103.5,110 C105,112.4 91.8,124.4 83.1,128.7 C79,130.8 75.8,131.5 69.4,131.8 L61,132.3 L56,141 C51.1,149.5 47.7,156.7 43.8,166.4 L41.9,171.3 L45.9,167.7 C48.1,165.7 52.1,162.9 54.8,161.6 C60.1,158.9 68.7,156.4 69.6,157.3 C70.6,158.2 66.2,167 61.5,173.5 C56.1,181.1 48.9,186.6 41.2,189 L35.6,190.8 L33.8,197.6 C32.9,201.4 31.8,206.3 31.4,208.5 L30.8,212.4 L35.9,206.8 C38.8,203.7 43.3,199.7 46.1,198.1 L51,195 L51,198.3 C51,203 47.5,216 44.9,221.2 C41.5,227.9 38.4,231.5 32.4,235.6 C27,239.3 27,239.4 27,244.5 C27,247.4 26.7,251.9 26.4,254.6 L25.9,259.5 L29,253.8 C30.8,250.7 34.4,245.7 37,242.8 L41.8,237.5 L42.5,241.3 C42.9,243.3 43,249.6 42.8,255.3 C42.5,263.8 42,266.5 39.7,271.5 C36.5,278.4 28.6,287 25.5,287 C24.3,287 21.4,285.7 18.9,284.2 Z M21.4,277.3 C20,268.9 13.8,258.9 6.1,252.4 L2.9,249.8 L3.6,254.1 C4.9,262.8 8.1,269.1 13.9,275.2 C20.7,282.1 22.4,282.6 21.4,277.3 Z M35.5,272 C36.7,269.5 38.3,265.1 38.9,262.2 C40.2,256.1 40.4,246 39.2,246 C38.7,246 37.5,247.3 36.3,248.8 C30.4,256.8 27.4,266.9 28.6,275.3 C29.2,280.1 29.2,280.1 31.2,278.3 C32.3,277.3 34.2,274.5 35.5,272 Z M22.8,226.8 C22.3,218.7 19.6,211.6 14.5,204.4 L11.2,199.7 L10.5,204.3 C9.3,212.2 12.9,224.2 18.4,230.8 C22.6,235.7 23.3,235 22.8,226.8 Z M35,229 C37.1,226.9 40.1,222.8 41.5,220 C44.2,214.7 47.5,203.2 46.6,202.3 C46.4,202 43.8,203.9 41.1,206.5 C35.3,211.9 30.5,221 29.5,228.3 C28.7,234.1 29.7,234.3 35,229 Z M48.4,181.7 C54.8,177.6 65.4,164.1 63.6,162.3 C62.5,161.1 53.5,165.6 49,169.7 C44,174.2 41,178.4 39,183.4 C38,186.2 38,186.2 40.7,185.5 C42.3,185.2 45.7,183.5 48.4,181.7 Z M39.4,158 C39.3,151.1 38.7,147 37.2,143 L35.2,137.5 L33.4,141.5 C32.1,144.4 31.6,148.1 31.6,155 C31.5,163 31.9,165.3 33.9,169.5 L36.2,174.5 L37.9,171 C39,168.5 39.5,164.9 39.4,158 Z M81.6,125.5 C87.2,122.8 97,115.2 97,113.7 C97,112.1 85.7,113.6 80.7,115.8 C76.1,117.9 66,126.4 66,128.3 C66,130 76,128.2 81.6,125.5 Z M68.5,102.5 C68.4,94.8 67.9,90.5 66.9,88 L65.3,84.5 L63.6,88.5 C59.5,98.1 59.2,108.4 62.7,117.1 L64.3,121.3 L66.4,117.4 C68.2,114.1 68.5,111.8 68.5,102.5 Z M117.1,92.4 C123.5,90.5 132,86.3 132,85.1 C132,84.1 126.2,83 120.9,83 C119,83 114.9,83.7 111.9,84.6 C106.6,86.2 98,90.8 98,92.2 C98,94.3 110.1,94.4 117.1,92.4 Z M104.3,77.5 C106.3,75.5 109.2,71.9 110.6,69.4 C113.3,64.8 117.4,52.1 116.5,51.2 C115.6,50.3 108.7,56.3 105.6,60.7 C103.9,63.1 101.7,67.2 100.8,69.8 C99,74.8 98.4,81 99.8,81 C100.3,81 102.3,79.4 104.3,77.5 Z M162.6,55.9 L167.5,53.5 L160.8,53.2 C155.6,53 152.9,53.4 149.1,55.1 C146.3,56.3 144.3,57.7 144.7,58.2 C145.7,60 157.3,58.4 162.6,55.9 Z M147.6,48.8 C149.3,47 151.4,44.3 152.2,42.9 C154.1,39.8 157.2,29.9 156.5,29.1 C155.4,28.1 147.7,36.7 145.4,41.5 C143.1,46.4 142.2,52 143.8,52 C144.2,52 146,50.5 147.6,48.8 Z" id="Shape"></path>
                <path d="M411.2,281.5 C403.5,273.1 401.6,267.2 401.5,252.3 C401.5,245.6 401.9,239.8 402.3,239.3 C403.6,238.1 411.7,247.4 415,253.9 L417.9,259.5 L417.9,256 C418,254.1 417.7,249.5 417.4,245.9 L416.7,239.2 L411.3,235.4 C401.8,228.6 395.3,216.3 393.6,201.8 C393.1,197.7 393.2,196 394,196 C397,196 408.2,205.7 412.4,212 L414,214.5 L413.4,211 C413,209.1 411.8,203.7 410.6,199.1 L408.5,190.7 L402.9,189 C395.7,186.8 389,182 384.1,175.6 C379.7,169.9 373.5,158.2 374.4,157.3 C375.3,156.4 384.1,158.9 389.5,161.6 C392.3,163 396.2,165.8 398.3,167.8 C400.3,169.8 402,171.1 402,170.7 C402,169 392.5,148.6 388.1,141 L383.3,132.5 L376.3,132.3 C364.4,131.9 356.1,127.8 345.5,117 C340.6,112.1 339.8,110.8 341,110 C344.6,107.7 358.6,109.6 366.2,113.3 C372.3,116.3 371.6,115.1 360.9,103.7 C353.7,96 352.3,94.9 350.1,95.4 C339.2,97.8 336.8,98 330.8,97 C323.7,95.8 309.4,89.1 306.1,85.6 L303.9,83.3 L309.8,81.6 C316.9,79.6 329.1,79.6 334.5,81.5 C336.7,82.3 338.7,83 339,83 C339.2,83 335.4,80 330.5,76.4 C320.4,69 306.1,60.3 304.6,60.8 C299.9,62.3 293.3,62.8 288.8,62 C283.2,61 269,54.5 269,53 C269,51.3 276.6,49.5 284.1,49.5 L291.7,49.5 L288.8,44.3 C286,39.3 282.2,24.5 283.4,23.2 C284.4,22.3 290,25.8 294.8,30.4 C300.5,35.8 304.1,42.9 304.8,50.2 L305.3,56 L313.9,61.1 C318.6,63.9 323.9,67.2 325.5,68.5 C330.8,72.3 331.4,72.5 329.7,69.9 C327.9,67.1 324.4,55.3 323.6,49.3 C322.9,44.1 323.8,43.9 329.5,47.6 C341.8,55.8 348.9,68.1 349,81.4 L349.1,86.5 L360.6,98.3 L372,110.1 L371.4,106.2 C370.3,99.2 375.7,77.4 378.4,78.3 C380.5,78.9 385.9,91.5 386.9,98.1 C388.1,105.6 387,114 383.9,120.4 L382,124.4 L386,130.4 C388.1,133.8 392.4,141.2 395.4,147 C400.4,156.5 401,157.2 401,154 C401,148.2 407.1,131 409,131 C410.3,131 415.1,143 416.2,149 C417.7,156.7 416,166.6 411.9,173.9 L409,179.4 L412,189.9 C413.6,195.7 415.7,204.7 416.6,209.8 L418.3,219.2 L422,211.3 C426.4,202 433.8,192.4 435.4,194 C436.1,194.7 436.5,199.9 436.5,206.8 C436.5,217.4 436.3,219 433.8,224.3 C432.3,227.4 428.8,232.4 426.1,235.3 L421,240.7 L421,255.1 L421,269.5 L423.3,265 C425.9,259.8 436.4,248.3 441,245.6 L444.3,243.7 L443.8,252.1 C443.3,261.3 440.6,268.8 435.3,275.5 C431.8,280 421.5,287 418.5,287 C417,287 414.5,285.1 411.2,281.5 Z M429.4,276.4 C434.9,271.2 439.6,261.9 440.5,254.5 L441.1,249.5 L434.7,256.1 C427.8,263.2 424.5,269 423.1,276.3 C422,282.4 423.2,282.4 429.4,276.4 Z M415.6,268.8 C415.3,265.7 414.3,261.2 413.4,258.8 C411.3,253.7 406.3,246 405,246 C403.6,246 403.8,254.5 405.4,262.2 C407,269.5 409.1,274.3 412.3,277.8 L414.5,280.1 L415.3,277.3 C415.7,275.8 415.9,271.9 415.6,268.8 Z M425.6,230.8 C430.2,225.3 433.1,217.7 433.7,209.6 C434.1,204.7 433.9,202.1 433.2,201.6 C431.6,200.6 425,211.2 422.8,218.3 C420.9,224.5 420.4,234 421.9,234 C422.4,234 424.1,232.5 425.6,230.8 Z M414.5,228.3 C413.4,220.6 409.4,212.8 403.5,207 C400.5,204 397.8,201.8 397.6,202.1 C396.7,203 400,215 402.5,220.1 C405,225 412.3,233 414.2,233 C414.8,233 415,231.2 414.5,228.3 Z M406,185.5 C406,183 400.1,174.4 395.6,170.2 C390.4,165.5 381.7,161 380.4,162.3 C379.2,163.5 389.2,177 393.9,180.4 C399.9,184.8 406,187.4 406,185.5 Z M410.9,167.4 C412.2,164 413,159.5 413,155.6 C413,149.1 410.6,139 409,139 C407.6,139 405,148.6 404.3,156.1 C403.7,162.9 406.2,174.6 408,173.5 C408.5,173.2 409.8,170.5 410.9,167.4 Z M374.5,124 C368.1,117.5 360.9,114 352.8,113.3 L346.5,112.7 L350,116.4 C357,123.8 367.2,128.8 375.5,128.9 L379.4,129 L374.5,124 Z M381.8,116.8 C384.3,110.3 384.5,100.8 382.1,93.2 C380.9,89.3 379.6,85.8 379,85.5 C375.7,83.5 374.2,109.5 377.2,116.3 C379.3,120.8 380.2,120.9 381.8,116.8 Z M345.6,92.7 C347.3,91 336.9,85.5 328.9,83.8 C323.2,82.6 312,83.5 312,85.1 C312,86.3 319.1,89.9 326,92.2 C331.5,94 344,94.3 345.6,92.7 Z M345.4,77.8 C344,69.1 341,63.1 334.7,56.7 C330.8,52.7 328.5,51 328.2,51.9 C327.3,54.5 331.2,65.8 334.8,71.4 C337.8,75.8 344.1,82 345.7,82 C345.9,82 345.7,80.1 345.4,77.8 Z M299.4,58.1 C300.6,56.3 290.3,53 283.4,53 C275.5,53 275.7,54.2 284.2,57.1 C289.8,59 298.5,59.6 299.4,58.1 Z M300.9,48.1 C300.4,46 299.6,43.1 299,41.6 C298,38.9 289.3,29 288,29 C286.8,29 288.8,36.6 291.1,41.3 C293.5,46 298.8,52 300.6,52 C301.5,52 301.6,51 300.9,48.1 Z" id="Shape"></path>
            </g>
        </g>
    </g>
</svg>