<?xml version="1.0" encoding="utf-8"?>
<!-- Generator: Adobe Illustrator 17.0.2, SVG Export Plug-In . SVG Version: 6.00 Build 0)  -->
<!DOCTYPE svg PUBLIC "-//W3C//DTD SVG 1.1//EN" "http://www.w3.org/Graphics/SVG/1.1/DTD/svg11.dtd">
<svg version="1.1" id="Layer_1" xmlns="http://www.w3.org/2000/svg" xmlns:xlink="http://www.w3.org/1999/xlink" x="0px" y="0px"
	 width="576px" height="576px" viewBox="0 0 576 576" enable-background="new 0 0 576 576" xml:space="preserve">
<rect fill="#E4BC05" width="576" height="576"/>
<rect id="Stem" x="288" fill="#FFFFFF" width="6" height="217"/>
<g id="Light">
	<path fill="#FFFFFF" d="M315.118,251.325v-8.05l-48.251,8.913v8.038L315.118,251.325z M315.118,232.887l-48.251,8.907v8.045
		l48.251-8.904V232.887z M311.825,231.156c0-0.106,0.021-0.199,0.021-0.302c0-1.956-0.323-3.826-0.892-5.602l0,0v-0.006
		c-0.072-0.208-0.164-0.407-0.236-0.61c-0.122-0.347-0.248-0.696-0.401-1.023c-0.025-0.075-0.055-0.151-0.081-0.217l-0.016,0.006
		c-3.156-7.033-10.636-11.975-19.376-11.975c-9.49,0-17.506,5.827-20.105,13.824h29.437l-30.338,5.602l-2.971,0.541v8.051
		l4.709-0.873L311.825,231.156z M242.417,323.05c2.258,24.446,19.693,41.523,48.582,41.523c28.889,0,46.323-17.104,48.588-41.523
		c1.836-24.713-6.402-32.4-17.341-48.337c-3.49-5.041-5.69-10.535-7.103-15.703c0,0-32.912,0.391-32.984-0.001h-15.299
		c-1.413,5.168-3.611,10.662-7.1,15.703C248.812,290.65,240.575,298.337,242.417,323.05z"/>
	<g>
		<g>
			<g>
				<path fill="#E4BC05" d="M311.492,298.759c-0.207-0.259-0.445-0.509-0.7-2.287l-12.331-37.62c-1.293,0.177-0.8,0.177-1.293,0.177
					c-0.12,0-0.811-0.039-0.933,0.002c-0.617,0.201-0.384,0.92-0.181,1.538l11.558,35.264c-2.807-1.368-6.315-1.994-9.178-1.083
					c-0.621,0.197-1.182,0.458-1.69,0.78l-4.927-1.461c-2.149,0-4.177,0.688-5.715,1.915c-0.86-0.459-1.856-0.838-2.967-1.118
					c-3.28-0.831-6.182-0.631-8.596,0.551l11.422-34.846c0.203-0.618,0.441-1.568,0.319-1.571c-2.616-0.064-2.555,0.126-2.547,0.84
					L271.2,298.066c-0.103,0.125-0.221,0.228-0.325,0.359c-0.398,0.51-0.31,1.249,0.2,1.647c0.51,0.398,1.247,0.31,1.646-0.2
					c2.268-2.895,5.578-3.814,9.837-2.736c0.481,0.122,1.177,0.332,1.899,0.659c-0.707,1.11-1.057,2.37-1.002,3.649
					c0.105,2.55,0.972,4.42,2.377,5.133c0.824,0.418,1.732,0.367,2.492-0.139c1.236-0.825,1.837-2.696,1.649-5.133
					c-0.115-1.481-0.76-2.797-1.864-3.877c1.915-1.198,4.801-1.327,6.862-0.22c-0.782,1.104-1.237,2.496-1.327,4.122
					c-0.128,2.278,0.576,4.121,1.877,4.929c0.831,0.517,1.83,0.542,2.675,0.061c1.327-0.751,2.062-2.553,2.024-4.941
					c-0.026-1.545-0.622-2.995-1.612-4.19c0.172-0.077,0.349-0.143,0.537-0.204c3.507-1.117,8.617,0.856,10.509,3.235
					c0.404,0.506,1.142,0.59,1.648,0.189C311.809,300.003,311.893,299.265,311.492,298.759z M287.02,304.486
					c-0.021,0.016-0.034,0.026-0.052,0.026s-0.038-0.008-0.074-0.026c-0.342-0.174-1.009-1.053-1.096-3.14
					c-0.034-0.79,0.186-1.571,0.627-2.276c0.652,0.621,1.133,1.415,1.209,2.415C287.773,303.294,287.343,304.27,287.02,304.486z
					 M297.038,304.277c-0.044,0.026-0.084,0.041-0.128,0.041s-0.092-0.017-0.155-0.055c-0.332-0.206-0.869-1.031-0.77-2.805
					c0.061-1.116,0.335-2.04,0.815-2.771c0.659,0.795,1.057,1.739,1.073,2.726C297.904,303.284,297.361,304.094,297.038,304.277z"/>
			</g>
		</g>
	</g>
</g>
<g id="Bug">
	<path fill="#FFFFFF" d="M201.771,345.46c0,0-9.883-1.646-11.082-8.43c-0.632-3.575,1.321-5.72,3.081-6.032
		c1.828-0.324,5.589,1.526,6.981,8.694C202.144,346.86,201.771,345.46,201.771,345.46z"/>
	<path fill="#FFFFFF" d="M203.188,346.843c0,0,0.228,3.185,2.151,3.641c0,0-0.831,3.478-4.648,4.814
		c-5.605,1.964-7.308-0.409-7.572-1.901c-0.624-3.534,3.275-6.359,5.51-6.754C201.933,346.059,203.188,346.843,203.188,346.843z"/>
	<path fill="#FFFFFF" d="M205.379,343.33c-1.029,0.615-1.589,2.287-0.801,4.506c0.829,2.332,4.63,4.919,7.363,3.026
		c0.867-0.601,0.114-4.87-2.432-6.652C207.795,343.011,206.573,342.617,205.379,343.33z"/>
	<path fill="#FFFFFF" d="M214.196,338.701c-5.19,0.854-5.741,3.779-5.741,3.779s-0.064-4.513,2.862-6.915l0.69,0.779
		c0,0-1.938,1.615-1.938,2.906c0,0,2.906-1.615,3.552-1.615"/>
	<polygon fill="#FFFFFF" points="192.614,353.725 193.067,354.745 188.879,355.944 	"/>
</g>
</svg>
