<svg xmlns="http://www.w3.org/2000/svg" xmlns:xlink="http://www.w3.org/1999/xlink" version="1.1" id="Layer_1" x="0px" y="0px" width="71.9424460432px" height="100px" viewBox="0 0 100 139.131" enable-background="new 0 0 100 139.131" xml:space="preserve">
<g>
	<path fill="#000000" d="M50.399,26.597c-17.335,0-31.439,14.104-31.439,31.439v0.475c-0.002,8.748-0.005,14.527,9,29.81   c1.015,1.722,1.032,1.75,1.854,3.018c0.779,1.199,2.398,3.693,6.596,10.311c0.733,1.157,2.268,1.502,3.426,0.767   c1.158-0.733,1.501-2.267,0.767-3.425c-4.211-6.641-5.841-9.15-6.624-10.355c-0.772-1.189-0.772-1.189-1.742-2.834   c-8.317-14.116-8.315-19.074-8.312-27.288v-0.477c0-14.599,11.876-26.475,26.475-26.475s26.477,11.876,26.477,26.475v0.477   c0.003,8.214,0.005,13.172-8.313,27.288c-0.969,1.645-0.969,1.645-1.742,2.834c-0.781,1.205-2.412,3.715-6.623,10.355   c-0.734,1.158-0.391,2.691,0.768,3.425c0.412,0.262,0.871,0.386,1.326,0.386c0.821,0,1.625-0.406,2.099-1.152   c4.195-6.617,5.815-9.111,6.595-10.311c0.823-1.268,0.842-1.296,1.855-3.018c9.005-15.282,9.003-21.062,9-29.81v-0.475   C81.84,40.7,67.735,26.597,50.399,26.597z"/>
	<path fill="#000000" d="M63.253,105.458H38.294c-1.371,0-2.481,1.11-2.481,2.482c0,1.37,1.11,2.481,2.481,2.481h24.959   c1.37,0,2.481-1.111,2.481-2.481C65.734,106.568,64.623,105.458,63.253,105.458z"/>
	<path fill="#000000" d="M61.637,112.582H39.91c-1.371,0-2.482,1.11-2.482,2.482c0,1.371,1.111,2.482,2.482,2.482h21.727   c1.371,0,2.482-1.111,2.482-2.482C64.119,113.692,63.008,112.582,61.637,112.582z"/>
	<path fill="#000000" d="M59.303,119.707h-17.06c-1.371,0-2.481,1.11-2.481,2.48c0,1.372,1.11,2.482,2.481,2.482h17.06   c1.372,0,2.482-1.11,2.482-2.482C61.785,120.817,60.675,119.707,59.303,119.707z"/>
	<path fill="#000000" d="M50.84,131.657c3.125,0,5.789-1.945,6.865-4.688H43.976C45.051,129.712,47.716,131.657,50.84,131.657z"/>
	<path fill="#000000" d="M36.804,65.539c-0.285-0.357-0.806-0.416-1.163-0.133c-0.357,0.285-0.416,0.806-0.133,1.163   c0.146,0.183,0.314,0.359,0.494,0.533l8.826,26.926c0.114,0.349,0.438,0.57,0.786,0.57c0.085,0,0.172-0.013,0.258-0.042   c0.435-0.142,0.671-0.608,0.528-1.044l-8.154-24.878c1.98,0.965,4.455,1.407,6.475,0.764c0.438-0.139,0.834-0.323,1.192-0.55   c0.986,0.646,2.194,1.031,3.476,1.031c1.516,0,2.947-0.485,4.032-1.351c0.607,0.324,1.309,0.591,2.093,0.789   c2.314,0.586,4.361,0.445,6.064-0.389l-8.058,24.583c-0.143,0.436,0.095,0.902,0.527,1.044c0.087,0.029,0.173,0.042,0.259,0.042   c0.348,0,0.672-0.222,0.786-0.57l8.841-26.969c0.073-0.088,0.156-0.161,0.229-0.253c0.281-0.36,0.219-0.881-0.141-1.162   c-0.36-0.281-0.88-0.219-1.161,0.141c-1.6,2.042-3.935,2.691-6.94,1.93c-0.339-0.086-0.83-0.234-1.34-0.465   c0.499-0.783,0.746-1.672,0.707-2.574c-0.074-1.799-0.686-3.118-1.677-3.621c-0.581-0.295-1.222-0.259-1.758,0.098   c-0.872,0.582-1.296,1.902-1.163,3.621c0.081,1.045,0.536,1.973,1.315,2.735c-1.351,0.845-3.387,0.936-4.841,0.155   c0.552-0.779,0.873-1.761,0.936-2.908c0.09-1.607-0.406-2.907-1.324-3.477c-0.586-0.365-1.291-0.382-1.887-0.043   c-0.936,0.53-1.455,1.801-1.428,3.486c0.018,1.09,0.439,2.113,1.137,2.956c-0.121,0.054-0.246,0.101-0.379,0.144   C41.744,68.609,38.139,67.217,36.804,65.539z M52.772,62.529c0.015-0.011,0.024-0.018,0.037-0.018s0.027,0.006,0.052,0.018   c0.241,0.123,0.712,0.743,0.773,2.215c0.024,0.557-0.131,1.108-0.442,1.606c-0.46-0.438-0.799-0.998-0.853-1.704   C52.241,63.37,52.544,62.681,52.772,62.529z M45.705,62.676c0.031-0.018,0.059-0.029,0.09-0.029s0.065,0.012,0.109,0.039   c0.234,0.145,0.613,0.727,0.543,1.979c-0.043,0.787-0.236,1.439-0.575,1.955c-0.465-0.561-0.746-1.227-0.757-1.923   C45.094,63.377,45.477,62.805,45.705,62.676z"/>
	<path fill="#000000" d="M50.851,20.815c1.143,0,2.068-0.926,2.068-2.068V9.542c0-1.143-0.926-2.068-2.068-2.068   c-1.142,0-2.068,0.926-2.068,2.068v9.205C48.782,19.89,49.709,20.815,50.851,20.815z"/>
	<path fill="#000000" d="M72.714,27.791c0.362,0.258,0.78,0.382,1.195,0.382c0.647,0,1.286-0.303,1.688-0.87l5.331-7.503   c0.662-0.932,0.442-2.224-0.489-2.885c-0.931-0.661-2.222-0.442-2.884,0.488l-5.331,7.503   C71.562,25.838,71.782,27.129,72.714,27.791z"/>
	<path fill="#000000" d="M89.129,47.411l8.692-3.028c1.079-0.377,1.649-1.556,1.271-2.635c-0.376-1.078-1.557-1.647-2.633-1.272   l-8.691,3.029c-1.081,0.376-1.649,1.556-1.273,2.635c0.297,0.853,1.098,1.388,1.954,1.388   C88.673,47.527,88.903,47.49,89.129,47.411z"/>
	<path fill="#000000" d="M98.508,70.234l-8.842-2.566c-1.099-0.316-2.244,0.314-2.563,1.41c-0.317,1.098,0.314,2.245,1.411,2.562   l8.841,2.566c0.192,0.056,0.387,0.082,0.577,0.082c0.897,0,1.723-0.588,1.986-1.491C100.235,71.701,99.604,70.553,98.508,70.234z"/>
	<path fill="#000000" d="M24.401,27.303c0.404,0.567,1.04,0.87,1.688,0.87c0.414,0,0.833-0.124,1.195-0.382   c0.932-0.662,1.15-1.953,0.488-2.885l-5.331-7.503c-0.662-0.931-1.953-1.149-2.883-0.488c-0.932,0.661-1.15,1.953-0.489,2.885   L24.401,27.303z"/>
	<path fill="#000000" d="M12.231,43.505L3.54,40.476c-1.08-0.375-2.258,0.194-2.634,1.272c-0.376,1.079,0.194,2.258,1.272,2.635   l8.691,3.028c0.226,0.079,0.455,0.116,0.682,0.116c0.855,0,1.655-0.535,1.953-1.388C13.88,45.061,13.312,43.881,12.231,43.505z"/>
	<path fill="#000000" d="M10.333,67.668l-8.84,2.566c-1.098,0.318-1.729,1.467-1.41,2.563c0.262,0.903,1.089,1.491,1.985,1.491   c0.19,0,0.385-0.026,0.577-0.082l8.841-2.566c1.097-0.317,1.728-1.465,1.409-2.562S11.431,67.35,10.333,67.668z"/>
</g>
</svg>