<svg xmlns="http://www.w3.org/2000/svg" xmlns:xlink="http://www.w3.org/1999/xlink" version="1.1" id="Layer_1" x="0px" y="0px" width="100px" height="100px" viewBox="0 0 100 100" enable-background="new 0 0 100 100" xml:space="preserve">
<g>
	<path d="M50,0C32.344,0,18.03,14.313,18.03,31.971c0,8.828,3.578,16.821,9.364,22.606c8.316,8.316,10.99,9.145,10.99,17.065   c0,0.012,0,0.022,0,0.034c-1.954,0.243-3.468,1.907-3.468,3.927c0,2.021,1.514,3.684,3.468,3.927c0,0.034,0,0.034,0,0.034h0.493   c-2.188,0-3.961,1.773-3.961,3.961c0,2.188,1.773,3.962,3.961,3.962c-2.188,0-3.961,1.772-3.961,3.961   c0,2.188,1.773,3.961,3.961,3.961h1.736c-0.033,0.206-0.055,0.415-0.055,0.63c0,2.188,1.773,3.961,3.961,3.961h10.96   c2.188,0,3.961-1.772,3.961-3.961c0-0.215-0.021-0.424-0.055-0.63h1.735c2.188,0,3.961-1.773,3.961-3.961   c0-2.188-1.773-3.961-3.961-3.961c2.188,0,3.961-1.773,3.961-3.962c0-2.188-1.773-3.961-3.961-3.961h0.493c0,0,0,0,0-0.034   c1.954-0.243,3.468-1.906,3.468-3.927c0-2.02-1.514-3.684-3.468-3.927c0-0.012,0-0.022,0-0.034c0-7.921,2.674-8.749,10.991-17.065   c5.785-5.785,9.363-13.778,9.363-22.606C81.97,14.313,67.656,0,50,0z M69.414,51.386c-1.45,1.45-2.731,2.675-3.863,3.754   c-5.447,5.202-8.449,8.067-8.449,16.503h-4.845V51.311c0-1.246-1.011-2.257-2.257-2.257s-2.257,1.011-2.257,2.257v20.332h-4.845   c0-8.436-3.001-11.301-8.449-16.503c-1.131-1.079-2.413-2.304-3.863-3.754c-5.187-5.187-8.042-12.081-8.042-19.415   C22.544,16.831,34.86,4.514,50,4.514s27.457,12.317,27.457,27.457C77.457,39.305,74.601,46.199,69.414,51.386z"/>
	<path d="M57.358,30.76H42.642c-1.246,0-2.256,1.011-2.256,2.257s1.01,2.257,2.256,2.257h14.717c1.246,0,2.257-1.011,2.257-2.257   S58.604,30.76,57.358,30.76z"/>
	<path d="M57.358,36.721H42.642c-1.246,0-2.256,1.011-2.256,2.257s1.01,2.257,2.256,2.257h14.717c1.246,0,2.257-1.011,2.257-2.257   S58.604,36.721,57.358,36.721z"/>
	<path d="M57.358,42.683H42.642c-1.246,0-2.256,1.01-2.256,2.257c0,1.246,1.01,2.256,2.256,2.256h14.717   c1.246,0,2.257-1.01,2.257-2.256C59.615,43.692,58.604,42.683,57.358,42.683z"/>
</g>
</svg>