<?xml version="1.0" encoding="utf-8"?>
<svg xmlns="http://www.w3.org/2000/svg">
<symbol id="bugdiagnosis" viewBox="0 0 100 125"><path style="text-indent:0;text-transform:none;block-progression:tb" d="M12 12.002c-3.29 0-6 2.71-6 6v50C6 71.29 8.71 74 12 74h29v10h-4.188c-1.047.05-1.955 1.047-1.906 2.094C34.956 87.14 35.953 88.05 37 88h26c1.057.015 2.028-.943 2.028-2s-.97-2.015-2.028-2h-4V74h29c3.29 0 6-2.71 6-6V18.003c0-3.29-2.71-6-6-6zm0 4h76c1.143 0 2 .857 2 2v24l-17.72-.032-6.468-13.812a2.048 2.048 0 0 0-1.874-1.18 2.05 2.05 0 0 0-1.813 1.274L51.187 55.97l-10.28-32.593c-.284-.893-1.26-1.507-2.188-1.375-.655.09-1.25.528-1.532 1.125L28.718 41H10V18.003c0-1.143.857-2 2-2zM38.625 29.47l10.47 33.124c.24.79 1.02 1.385 1.845 1.412a2.055 2.055 0 0 0 1.935-1.287l11.28-28.656 5.032 10.75A2.049 2.049 0 0 0 71 45.969L90 46v22c0 1.143-.857 2-2 2H12c-1.143 0-2-.857-2-2V45h20c.757 0 1.493-.47 1.813-1.155zM45 74h10v10H45z" overflow="visible" color="#000"/>
</symbol>
<symbol id="bugreporting" viewBox="0 0 64 80"><path d="M27.768 29.2v-1.9c1.6-1.3 2.9-3.3 3.6-5.5h2.7c1.4 0 2.5-1.1 2.5-2.5v-3.5c0-1.2-.8-2.2-2-2.5-1.4-5.9-6.3-10.2-12.1-10.2s-10.7 4.3-12.1 10.2c-1.1.2-2 1.2-2 2.5v3.5c0 1.4 1.1 2.4 2.4 2.5v.3c0 1.3 1.1 2.4 2.4 2.4h7c.3.3.6.4 1 .4h1.9c.8 0 1.4-.6 1.4-1.4 0-.8-.6-1.4-1.4-1.4h-1.9c-.4 0-.8.2-1 .4h-4.2c-.6-1.4-1-2.9-1-4.5 0-5.1 3.3-9.2 7.4-9.2 4.1 0 7.4 4.1 7.4 9.2s-3.3 9.2-7.4 9.2c-1.6 0-3-.6-4.3-1.7-.4-.4-1-.3-1.4.1-.4.4-.3 1 .1 1.4l.3.3v1.8c-9.7 1.7-10.6 9.2-10.6 18v1h31.9v-1c0-7.7-.8-15.9-10.6-17.9zm-14.6-6.6c-.2 0-.4-.2-.4-.4v-.3h.8c.1.3.1.5.2.8h-.6zm9.3-15.7c-3.7 0-7 2.6-8.5 6.4h-1.6c1.3-4.7 5.3-8.1 10.1-8.1s8.7 3.4 10.1 8.1h-1.6c-1.5-3.8-4.8-6.4-8.5-6.4zm0 22.4c1.2 0 2.3-.3 3.3-.7v2.3c0 1.8-1.5 3.3-3.3 3.3-1.8 0-3.3-1.5-3.3-3.3v-2.2c1 .3 2.2.6 3.3.6zm-13.9 16.8c.1-7.8 1-13.4 8.7-14.9.2 2.7 2.5 4.9 5.3 4.9s5-2.1 5.2-4.8c7 1.5 8.6 6.6 8.7 14.8h-27.9zm48.9-35.7c-.9-2.3-2.6-4.1-4.8-5.1 1.2-.7 2.1-1.8 2.7-3.1.2-.5 0-1.1-.5-1.3-.5-.2-1.1 0-1.3.5-.7 1.5-2 2.6-3.5 2.9.5-.4.8-1.1.8-1.9 0-1.3-.9-2.4-2.1-2.4-1.2 0-2.1 1.1-2.1 2.4 0 .7.3 1.4.8 1.8-1.5-.4-2.7-1.6-3.3-3-.2-.5-.8-.8-1.3-.6-.5.2-.8.8-.6 1.3.5 1.4 1.5 2.6 2.7 3.4-2.1.9-3.8 2.6-4.8 4.8-.2.5 0 1.1.5 1.3.5.2 1.1 0 1.3-.5.7-1.5 1.8-2.7 3.2-3.5-.6.8-.9 1.8-.9 2.9 0 2.7 2 4.8 4.5 4.8s4.5-2.2 4.5-4.8c0-1.1-.3-2.1-.9-2.9 1.5.8 2.7 2.1 3.3 3.8.2.4.5.6.9.6.1 0 .2 0 .4-.1.4-.2.7-.8.5-1.3z"/><path d="M47.468 16.9c-.6 0-1 .4-1 1 0 3.8-3.1 6.9-6.9 6.9h-5.4c-.6 0-1 .4-1 1s.4 1 1 1h5.4c4.9 0 8.9-4 8.9-8.9 0-.5-.4-1-1-1z"/>
</symbol>
<symbol id="bulb" viewBox="0 0 47 65"><g stroke="#505050" stroke-width="4" fill="none" fill-rule="evenodd"><path d="M26.043 27.063S15.916 8.44 7.151 9.38c-4.616.495-5.442 5.373-4.33 8.985 1.153 3.748 6.407 10.243 15.77 9.497l7.452-.8"/><path d="M26.55 27.341S8.88 15.63 10.58 6.98c.896-4.555 5.828-4.953 9.33-3.53 3.632 1.475 9.644 7.275 8.085 16.537l-1.447 7.354zm.018 6.42s.444 5.972 4.188 6.824c0 0-1.618 6.516-9.049 9.02-10.911 3.678-14.226-.768-14.738-3.56-1.215-6.623 6.375-11.92 10.724-12.661 6.434-1.096 8.875.376 8.875.376zM38.35 37.68c-3.573 0-6.47-3.106-6.47-6.936 0-3.831 2.897-6.936 6.47-6.936 3.574 0 6.471 3.105 6.471 6.936 0 3.83-2.897 6.936-6.47 6.936z" fill="#FFC900"/><path d="M27.66 43.814l7.145 3.992 1.775 6.511M21.435 48.717l5.695 5.689-.327 6.597M14.568 51.07l1.052 7.527-4.561 4.851"/></g>
</symbol>
<symbol id="bulb_nobug" viewBox="0 0 160 447"><g fill="none" fill-rule="evenodd"><path d="M3.774 378.677c3.611 38.37 30.935 65.26 76.317 65.26 45.383 0 72.706-26.89 76.318-65.26 2.826-38.843-10.05-50.951-27.167-75.955-5.496-7.863-8.95-16.512-11.149-24.689 0 0-51.664.63-51.82 0H42.246c-2.199 8.177-5.654 16.826-11.15 24.69-17.273 25.003-30.15 37.111-27.323 75.954z" stroke="#505050" stroke-width="5.5"/><path d="M124.57 371.852c-.436-.653-.87-1.089-1.522-5.007L96.312 285c-2.826.435-1.74.435-2.826.435H91.53c-1.304.436-.87 1.96-.435 3.265l25.214 76.84c-6.086-3.048-13.694-4.354-19.997-2.395-1.304.435-2.609 1.088-3.695 1.741l-10.651-3.265c-4.565 0-9.13 1.524-12.39 4.136-1.956-1.088-4.13-1.741-6.521-2.394-7.173-1.742-13.477-1.307-18.693 1.306l24.78-75.75c.434-1.307.869-3.484.651-3.484-5.651-.217-5.651.218-5.434 1.742l-27.17 83.151c-.218.218-.435.435-.653.87-.869 1.09-.652 2.613.435 3.484 1.087.87 2.609.653 3.478-.436 5-6.312 12.172-8.271 21.302-5.877 1.087.218 2.608.653 4.13 1.524-1.522 2.394-2.391 5.224-2.174 7.836.217 5.66 2.174 9.578 5.217 11.101 1.739.871 3.695.871 5.434-.217 2.608-1.742 3.912-5.878 3.478-11.102-.218-3.265-1.74-6.095-4.13-8.489 4.13-2.612 10.433-2.83 14.998-.435-1.739 2.394-2.608 5.442-2.826 8.924-.217 5.007 1.304 8.925 4.13 10.666 1.74 1.089 3.913 1.089 5.869.218 2.826-1.741 4.565-5.66 4.347-10.666 0-3.265-1.304-6.53-3.478-9.142.435-.218.653-.218 1.087-.436 7.608-2.394 18.694 1.96 22.824 6.966.869 1.088 2.39 1.306 3.477.435 1.087-1.088 1.305-2.612.435-3.7zm-53.255 12.407h-.218c-.652-.435-2.173-2.394-2.39-6.748 0-1.741.434-3.482 1.304-5.006 1.521 1.306 2.39 3.047 2.608 5.224.435 3.918-.435 6.095-1.304 6.53zm21.954-.435h-.218s-.217 0-.434-.218c-.653-.435-1.957-2.177-1.74-6.095.218-2.394.653-4.353 1.74-6.095 1.521 1.742 2.39 3.7 2.39 5.878 0 4.353-1.086 6.094-1.738 6.53z" fill="#505050"/><path d="M81.333 195.5V2.5" stroke="#505050" stroke-width="5" stroke-linecap="square"/><path d="M112.297 222.967H50.83c.109-.644.24-1.323.398-2.032.795-3.584 2.067-7.166 3.91-10.489 5.207-9.382 13.85-14.946 27.089-14.946 13.21 0 21.557 5.532 26.319 14.87 1.689 3.31 2.797 6.883 3.43 10.46.133.747.238 1.462.32 2.137zM45.5 255.57h71v11.944h-71V255.57zm3-22.014h66V245.5h-66v-11.944z" stroke="#505050" stroke-width="5"/></g>
</symbol>
<symbol id="contribute" viewBox="0 0 100 125"><path fill="#404040" d="M9.1 83.6h32.1v-.7c-.5-10.9-3.4-21.3-8.6-28.7-4.2-6-9-8.6-15.2-.9C12 60 9 70.4 9 81.3v2.3z"/><circle fill="#404040" cx="25.2" cy="36.9" r="8.8"/><path fill="#404040" d="M31.1 83.6h36v-.8c-.5-12.3-3.8-23.9-9.6-32.2-4.7-6.8-10-9.7-17-1.1-6 7.5-9.4 19.2-9.4 31.3v2.8z"/><circle fill="#404040" cx="49.1" cy="31.3" r="9.9"/><path fill="#404040" d="M56.8 83.6h32.1v-.7c-.5-10.9-3.4-21.3-8.6-28.7-4.2-6-9-8.6-15.2-.9-5.4 6.7-8.4 17.1-8.4 28v2.3z"/><circle fill="#404040" cx="72.8" cy="36.9" r="8.8"/>
</symbol>
<symbol id="github-logo" viewBox="0 0 92 92"><path d="M61.896 52.548c-3.59 0-6.502 4.026-6.502 8.996 0 4.971 2.912 8.999 6.502 8.999 3.588 0 6.498-4.028 6.498-8.999.001-4.97-2.91-8.996-6.498-8.996zm22.631-23.416c.74-1.826.777-12.201-3.17-22.132 0 0-9.057.993-22.76 10.396-2.872-.793-7.736-1.19-12.597-1.19s-9.723.396-12.598 1.189C19.699 7.993 10.645 7 10.645 7c-3.948 9.931-3.913 20.306-3.172 22.132C2.834 34.169 0 40.218 0 48.483c0 35.932 29.809 36.508 37.334 36.508 1.703 0 5.088.004 8.666.009 3.578-.005 6.965-.009 8.666-.009 7.525 0 37.334-.576 37.334-36.508 0-8.265-2.834-14.314-7.473-19.351zM46.141 80.574h-.281c-18.859 0-33.545-2.252-33.545-20.58 0-4.389 1.549-8.465 5.229-11.847 6.141-5.636 16.527-2.651 28.316-2.651l.141-.003.141.003c11.789 0 22.178-2.984 28.316 2.651 3.68 3.382 5.229 7.458 5.229 11.847-.001 18.328-14.687 20.58-33.546 20.58zM30.104 52.548c-3.588 0-6.498 4.026-6.498 8.996 0 4.971 2.91 8.999 6.498 8.999 3.592 0 6.502-4.028 6.502-8.999-.001-4.97-2.911-8.996-6.502-8.996z" fill="#030104"/>
</symbol>
<symbol id="invalid" viewBox="40 40 60 20"><linearGradient id="a" gradientUnits="userSpaceOnUse" x1="40" y1="50" x2="100" y2="50"><stop offset="0" stop-color="#fff" stop-opacity="0"/><stop offset=".5" stop-color="#fff"/></linearGradient><path fill="url(#a)" d="M40 40h60v20H40z"/><path fill="#F00" d="M91.5 53.7L87 49.5l4.5-4.2-2.3-2.4-.1-.1-4.7 4.3-4.6-4.3-.1.1-2.3 2.4 4.5 4.2-4.5 4.2 2.4 2.5 4.6-4.3 4.7 4.3z"/>
</symbol>
<symbol id="siteoutreach" viewBox="0 0 512 640"><path d="M386.3 75c0-40.3-32.8-73-73-73-23 0-43.8 10.6-57.3 27.6C242.5 12.6 221.7 2 198.7 2c-40.3 0-73 32.8-73 73 0 81.7 117.6 159.4 122.6 162.7 4.7 2.9 11.1 2.8 15.4 0 5-3.3 122.6-81 122.6-162.7zM256 208.8C221.6 184.4 153.9 126 153.9 75c0-24.7 20.1-44.8 44.8-44.8 20.8 0 38.8 14.1 43.6 34.3 5.3 16.5 24.3 12.6 27.5 0 4.8-20.2 22.7-34.3 43.6-34.3 24.7 0 44.8 20.1 44.8 44.8-.1 51-67.8 109.4-102.2 133.8zM458.4 115.6c-28.5 0-51.6 23.2-51.6 51.6v53.5c-2.7-.5-5.6-.7-8.5-.7-27.7 0-50.2 22.5-50.2 50.3v50.6L301.6 372c-13.8 15.2-21.5 35-21.5 55.6v40.9c0 22.9 18.6 41.5 41.5 41.5H385c22.9 0 41.5-18.6 41.5-41.5v-16.7c0-3.4 1.3-6.7 3.7-9.2l68.3-71.6c7.4-7.8 11.5-17.9 11.5-28.7V167.2c0-28.5-23.2-51.6-51.6-51.6zm23.4 226.8c0 3.4-1.3 6.7-3.7 9.2l-68.3 71.6c-7.4 7.8-11.5 17.9-11.5 28.7v16.7c0 7.3-6 13.3-13.3 13.3h-63.4c-7.3 0-13.3-6-13.3-13.3v-40.9c0-13.6 5-26.6 14.1-36.6l50.1-55.1c2.4-2.6 3.7-6 3.7-9.5v-56.1c0-12.1 9.9-22 22-22s22 9.9 22 22v57.8c0 7.8 6.3 14.1 14.1 14.1s14.1-6.3 14.1-14.1v-57.8c0-13.3-5.2-25.3-13.6-34.3v-68.7c0-12.9 10.5-23.4 23.4-23.4s23.4 10.5 23.4 23.4v175zM164 320.9v-50.6c0-27.7-22.5-50.3-50.2-50.3-2.9 0-5.7.2-8.5.7v-53.5c0-28.5-23.2-51.6-51.6-51.6-28.5 0-51.7 23.1-51.7 51.6v175.2c0 10.7 4.1 20.9 11.5 28.7l68.3 71.6c2.4 2.5 3.7 5.7 3.7 9.2v16.7c0 22.9 18.6 41.5 41.5 41.5h63.4c22.9 0 41.5-18.6 41.5-41.5v-40.9c0-20.6-7.6-40.3-21.5-55.6L164 320.9zm39.6 147.6c0 7.3-6 13.3-13.3 13.3H127c-7.3 0-13.3-6-13.3-13.3v-16.7c0-10.7-4.1-20.9-11.5-28.7l-68.3-71.6c-2.4-2.5-3.7-5.7-3.7-9.2V167.2c0-12.9 10.5-23.4 23.4-23.4 12.9 0 23.4 10.5 23.4 23.4V236c-8.4 9-13.6 21.1-13.6 34.3v57.8c0 7.8 6.3 14.1 14.1 14.1s14.1-6.3 14.1-14.1v-57.8c0-12.1 9.9-22 22-22s22 9.9 22 22v56.1c0 3.5 1.3 6.9 3.7 9.5l50.1 55.1c9.1 10 14.1 23 14.1 36.6v40.9z"/>
</symbol>
<symbol id="twitter" viewBox="0 0 612 612"><path d="M612 116.258a250.714 250.714 0 0 1-72.088 19.772c25.929-15.527 45.777-40.155 55.184-69.411-24.322 14.379-51.169 24.82-79.775 30.48-22.907-24.437-55.49-39.658-91.63-39.658-69.334 0-125.551 56.217-125.551 125.513 0 9.828 1.109 19.427 3.251 28.606-104.326-5.24-196.835-55.223-258.75-131.174-10.823 18.51-16.98 40.078-16.98 63.101 0 43.559 22.181 81.993 55.835 104.479a125.556 125.556 0 0 1-56.867-15.756v1.568c0 60.806 43.291 111.554 100.693 123.104-10.517 2.83-21.607 4.398-33.08 4.398-8.107 0-15.947-.803-23.634-2.333 15.985 49.907 62.336 86.199 117.253 87.194-42.947 33.654-97.099 53.655-155.916 53.655-10.134 0-20.116-.612-29.944-1.721 55.567 35.681 121.536 56.485 192.438 56.485 230.948 0 357.188-191.291 357.188-357.188l-.421-16.253c24.666-17.593 46.005-39.697 62.794-64.861z" fill="#010002"/>
</symbol>
<symbol id="upload" viewBox="0 0 330 220"><title>Upload icon</title><path d="M266.75 82.5C257.125 35.75 215.875 0 165 0c-39.875 0-74.25 22-90.75 55C31.625 60.5 0 94.875 0 137.5 0 182.875 37.125 220 82.5 220h178.75c38.5 0 68.75-30.25 68.75-68.75 0-35.75-28.875-66-63.25-68.75zm-74.25 41.25v55h-55v-55H96.25L165 55l68.75 68.75H192.5z" fill="#000" fill-rule="evenodd"/>
</symbol>
<symbol id="valid" viewBox="40 409 60 20"><linearGradient id="a" gradientUnits="userSpaceOnUse" x1="40" y1="718" x2="43.516" y2="718" gradientTransform="matrix(17.0667 0 0 -17.0667 -642.667 12672.867)"><stop offset="0" stop-color="#fff" stop-opacity="0"/><stop offset=".578" stop-color="#fff"/></linearGradient><path fill="url(#a)" d="M40 409h60v20H40z"/><path fill="#319501" d="M81.9 426.2l-6-6 2.9-2.9 3.2 3.2 8.6-8.6 2.8 2.9-11.5 11.4z"/>
</symbol></svg>