<!-- Generated by IcoMoon.io -->
<svg version="1.1" xmlns="http://www.w3.org/2000/svg" width="24" height="24" viewBox="0 0 24 24">
<title>airplay</title>
<path d="M20 2h-16c-1.7 0-3 1.3-3 3v10c0 1.7 1.3 3 3 3h1c0.6 0 1-0.4 1-1s-0.4-1-1-1h-1c-0.6 0-1-0.4-1-1v-10c0-0.6 0.4-1 1-1h16c0.6 0 1 0.4 1 1v10c0 0.6-0.4 1-1 1h-1c-0.6 0-1 0.4-1 1s0.4 1 1 1h1c1.7 0 3-1.3 3-3v-10c0-1.7-1.3-3-3-3z"></path>
<path d="M12.8 14.4c-0.4-0.5-1.2-0.5-1.5 0l-5 6c-0.2 0.3-0.3 0.7-0.1 1.1 0.1 0.3 0.4 0.5 0.8 0.5h10c0.4 0 0.7-0.2 0.9-0.6s0.1-0.8-0.1-1.1l-5-5.9zM9.1 20l2.9-3.4 2.9 3.4h-5.8z"></path>
</svg>
