<!-- Generated by IcoMoon.io -->
<svg version="1.1" xmlns="http://www.w3.org/2000/svg" width="24" height="24" viewBox="0 0 24 24">
<title>award</title>
<path d="M20 8c0-4.4-3.6-8-8-8s-8 3.6-8 8c0 2.6 1.2 4.9 3.1 6.3l-1.1 8.6c-0.1 0.4 0.1 0.8 0.4 1s0.7 0.2 1.1 0l4.5-2.7 4.5 2.7c0.1 0.1 0.3 0.1 0.5 0.1s0.4-0.1 0.5-0.2 0.5-0.6 0.4-1l-1.1-8.5c2-1.4 3.2-3.7 3.2-6.3zM6 8c0-3.3 2.7-6 6-6s6 2.7 6 6-2.7 6-6 6-6-2.7-6-6zM15.7 21.1l-3.2-1.9c-0.3-0.2-0.7-0.2-1 0l-3.2 1.9 0.7-5.7c0.9 0.4 1.9 0.6 3 0.6s2.1-0.2 3-0.6l0.7 5.7z"></path>
</svg>
