<!-- Generated by IcoMoon.io -->
<svg version="1.1" xmlns="http://www.w3.org/2000/svg" width="24" height="24" viewBox="0 0 24 24">
<title>bell</title>
<path d="M22 16c-1.1 0-2-0.9-2-2v-5c0-4.4-3.6-8-8-8s-8 3.6-8 8v5c0 1.1-0.9 2-2 2-0.6 0-1 0.4-1 1s0.4 1 1 1h20c0.6 0 1-0.4 1-1s-0.4-1-1-1zM5.5 16c0.3-0.6 0.5-1.3 0.5-2v-5c0-3.3 2.7-6 6-6s6 2.7 6 6v5c0 0.7 0.2 1.4 0.5 2h-13z"></path>
<path d="M14.2 20.1c-0.5-0.3-1.1-0.1-1.4 0.4s-0.9 0.6-1.4 0.4c-0.2-0.1-0.3-0.2-0.4-0.4-0.3-0.5-0.9-0.6-1.4-0.4-0.5 0.3-0.6 0.9-0.4 1.4 0.3 0.5 0.6 0.8 1.1 1.1s1 0.4 1.5 0.4c1 0 2-0.5 2.6-1.5 0.5-0.5 0.3-1.1-0.2-1.4z"></path>
</svg>
