<!-- Generated by IcoMoon.io -->
<svg version="1.1" xmlns="http://www.w3.org/2000/svg" width="24" height="24" viewBox="0 0 24 24">
<title>bell-off</title>
<path d="M14.2 20.1c-0.5-0.3-1.1-0.1-1.4 0.4s-0.9 0.6-1.4 0.4c-0.2-0.1-0.3-0.2-0.4-0.4-0.3-0.5-0.9-0.6-1.4-0.4-0.5 0.3-0.6 0.9-0.4 1.4 0.3 0.5 0.6 0.8 1.1 1.1s1 0.4 1.5 0.4c1 0 2-0.5 2.6-1.5 0.5-0.5 0.3-1.1-0.2-1.4z"></path>
<path d="M9.1 3.8c2.9-1.6 6.5-0.6 8.2 2.3 0.4 0.8 0.7 1.9 0.7 2.9v4c0 0.6 0.4 1 1 1s1-0.4 1-1v-4c0-1.4-0.4-2.7-1-3.9-2.2-3.8-7.1-5.2-10.9-3-0.5 0.2-0.7 0.8-0.4 1.3s0.9 0.6 1.4 0.4z"></path>
<path d="M23.7 22.3l-6-6c0 0 0 0 0 0l-16-16c-0.4-0.4-1-0.4-1.4 0s-0.4 1 0 1.4l4.3 4.3c-0.4 1-0.6 2-0.6 3v5c0 1.1-0.9 2-2 2-0.6 0-1 0.4-1 1s0.4 1 1 1h14.6l5.7 5.7c0.2 0.2 0.5 0.3 0.7 0.3s0.5-0.1 0.7-0.3c0.4-0.4 0.4-1 0-1.4zM5.5 16c0.3-0.6 0.5-1.3 0.5-2v-5c0-0.5 0.1-1 0.2-1.4l8.4 8.4h-9.1z"></path>
</svg>
