<!-- Generated by IcoMoon.io -->
<svg version="1.1" xmlns="http://www.w3.org/2000/svg" width="24" height="24" viewBox="0 0 24 24">
<title>cloud</title>
<path d="M18 9h-0.5c-0.7-2-2.1-3.7-3.9-4.8-2.1-1.2-4.5-1.6-6.8-1-2.4 0.7-4.3 2.2-5.6 4.2-1.2 2.1-1.6 4.5-1 6.8 1 4 4.6 6.8 8.7 6.8 0 0 0 0 0 0h9c3.3 0 6-2.7 6-6s-2.6-6-5.9-6zM18 19h-9c0 0 0 0 0 0-3.2 0-6-2.2-6.8-5.2-0.5-1.9-0.2-3.7 0.8-5.4s2.5-2.8 4.3-3.2c0.5-0.1 1.1-0.2 1.7-0.2 3.1 0 6 2.1 6.8 5.3 0.1 0.4 0.5 0.8 1 0.8h1.2c2.2 0 4 1.8 4 4 0 2.1-1.8 3.9-4 3.9z"></path>
</svg>
