<!-- Generated by IcoMoon.io -->
<svg version="1.1" xmlns="http://www.w3.org/2000/svg" width="24" height="24" viewBox="0 0 24 24">
<title>copy</title>
<path d="M20 8h-9c-1.7 0-3 1.3-3 3v9c0 1.7 1.3 3 3 3h9c1.7 0 3-1.3 3-3v-9c0-1.7-1.3-3-3-3zM21 20c0 0.6-0.4 1-1 1h-9c-0.6 0-1-0.4-1-1v-9c0-0.6 0.4-1 1-1h9c0.6 0 1 0.4 1 1v9z"></path>
<path d="M5 14h-1c-0.6 0-1-0.4-1-1v-9c0-0.6 0.4-1 1-1h9c0.6 0 1 0.4 1 1v1c0 0.6 0.4 1 1 1s1-0.4 1-1v-1c0-1.7-1.3-3-3-3h-9c-1.7 0-3 1.3-3 3v9c0 1.7 1.3 3 3 3h1c0.6 0 1-0.4 1-1s-0.4-1-1-1z"></path>
</svg>
