<!-- Generated by IcoMoon.io -->
<svg version="1.1" xmlns="http://www.w3.org/2000/svg" width="24" height="24" viewBox="0 0 24 24">
<title>download-cloud</title>
<path d="M15.3 16.3l-2.3 2.3v-6.6c0-0.6-0.4-1-1-1s-1 0.4-1 1v6.6l-2.3-2.3c-0.4-0.4-1-0.4-1.4 0s-0.4 1 0 1.4l4 4c0.1 0.1 0.2 0.2 0.3 0.2 0.1 0.1 0.3 0.1 0.4 0.1s0.3 0 0.4-0.1c0.1-0.1 0.2-0.1 0.3-0.2l4-4c0.4-0.4 0.4-1 0-1.4s-1-0.4-1.4 0z"></path>
<path d="M22.9 10.5c-1.1-1.5-2.9-2.5-4.9-2.5 0 0 0 0 0 0h-0.5c-1.5-4.4-6.2-6.9-10.7-5.7-2.4 0.6-4.3 2-5.6 4.1-1.2 2.1-1.6 4.5-1 6.8 0.4 1.4 1 2.7 2 3.7 0.4 0.4 1 0.5 1.4 0.1s0.5-1 0.1-1.4c-0.7-0.8-1.3-1.8-1.5-2.9-0.5-1.8-0.2-3.7 0.8-5.3s2.5-2.8 4.3-3.2c3.7-1 7.6 1.3 8.5 5 0.1 0.4 0.5 0.8 1 0.8h1.2c0 0 0 0 0 0 1.3 0 2.5 0.6 3.3 1.7 0.6 0.9 0.9 1.9 0.7 3s-0.8 2-1.6 2.6c-0.5 0.3-0.6 0.9-0.2 1.4 0.2 0.3 0.5 0.4 0.8 0.4 0.2 0 0.4-0.1 0.6-0.2 1.3-0.9 2.2-2.3 2.5-3.9s-0.3-3.1-1.2-4.5z"></path>
</svg>
