<!-- Generated by IcoMoon.io -->
<svg version="1.1" xmlns="http://www.w3.org/2000/svg" width="24" height="24" viewBox="0 0 24 24">
<title>globe</title>
<path d="M12 1c-6.1 0-11 4.9-11 11s4.9 11 11 11 11-4.9 11-11-4.9-11-11-11zM20.9 11h-4c-0.2-2.8-1.1-5.4-2.7-7.7 3.6 0.9 6.3 4 6.7 7.7zM9.1 13h5.9c-0.3 2.7-1.3 5.3-2.9 7.4-1.8-2.1-2.8-4.7-3-7.4zM9.1 11c0.3-2.7 1.3-5.3 2.9-7.4 1.7 2.2 2.7 4.8 2.9 7.4h-5.8zM9.7 3.3c-1.5 2.3-2.4 4.9-2.6 7.7h-4c0.4-3.7 3.1-6.8 6.6-7.7zM3.1 13h4c0.2 2.8 1.1 5.4 2.7 7.7-3.6-0.9-6.3-4-6.7-7.7zM14.3 20.7c1.5-2.3 2.4-4.9 2.7-7.7h4c-0.5 3.7-3.2 6.8-6.7 7.7z"></path>
</svg>
