<!-- Generated by IcoMoon.io -->
<svg version="1.1" xmlns="http://www.w3.org/2000/svg" width="24" height="24" viewBox="0 0 24 24">
<title>image</title>
<path d="M19 2h-14c-1.7 0-3 1.3-3 3v14c0 1.7 1.3 3 3 3h14c1.7 0 3-1.3 3-3v-14c0-1.7-1.3-3-3-3zM4 5c0-0.6 0.4-1 1-1h14c0.6 0 1 0.4 1 1v7.6l-3.3-3.3c-0.4-0.4-1-0.4-1.4 0l-10.6 10.6c-0.4-0.1-0.7-0.5-0.7-0.9v-14zM19 20h-11.6l8.6-8.6 4 4v3.6c0 0.6-0.4 1-1 1z"></path>
<path d="M8.5 11c1.4 0 2.5-1.1 2.5-2.5s-1.1-2.5-2.5-2.5-2.5 1.1-2.5 2.5 1.1 2.5 2.5 2.5zM8.5 8c0.3 0 0.5 0.2 0.5 0.5s-0.2 0.5-0.5 0.5-0.5-0.2-0.5-0.5 0.2-0.5 0.5-0.5z"></path>
</svg>
