<!-- Generated by IcoMoon.io -->
<svg version="1.1" xmlns="http://www.w3.org/2000/svg" width="24" height="24" viewBox="0 0 24 24">
<title>loader</title>
<path d="M12 1c-0.6 0-1 0.4-1 1v4c0 0.6 0.4 1 1 1s1-0.4 1-1v-4c0-0.6-0.4-1-1-1z"></path>
<path d="M12 17c-0.6 0-1 0.4-1 1v4c0 0.6 0.4 1 1 1s1-0.4 1-1v-4c0-0.6-0.4-1-1-1z"></path>
<path d="M5.6 4.2c-0.4-0.4-1-0.4-1.4 0s-0.4 1 0 1.4l2.8 2.8c0.2 0.2 0.5 0.3 0.7 0.3s0.5-0.1 0.7-0.3c0.4-0.4 0.4-1 0-1.4l-2.8-2.8z"></path>
<path d="M16.9 15.5c-0.4-0.4-1-0.4-1.4 0s-0.4 1 0 1.4l2.8 2.8c0.2 0.2 0.5 0.3 0.7 0.3s0.5-0.1 0.7-0.3c0.4-0.4 0.4-1 0-1.4l-2.8-2.8z"></path>
<path d="M7 12c0-0.6-0.4-1-1-1h-4c-0.6 0-1 0.4-1 1s0.4 1 1 1h4c0.6 0 1-0.4 1-1z"></path>
<path d="M22 11h-4c-0.6 0-1 0.4-1 1s0.4 1 1 1h4c0.6 0 1-0.4 1-1s-0.4-1-1-1z"></path>
<path d="M7.1 15.5l-2.8 2.8c-0.4 0.4-0.4 1 0 1.4 0.2 0.2 0.5 0.3 0.7 0.3s0.5-0.1 0.7-0.3l2.8-2.8c0.4-0.4 0.4-1 0-1.4s-1.1-0.4-1.4 0z"></path>
<path d="M16.2 8.8c0.3 0 0.5-0.1 0.7-0.3l2.8-2.8c0.4-0.4 0.4-1 0-1.4s-1-0.4-1.4 0l-2.8 2.8c-0.4 0.4-0.4 1 0 1.4 0.2 0.2 0.5 0.3 0.7 0.3z"></path>
</svg>
