<!-- Generated by IcoMoon.io -->
<svg version="1.1" xmlns="http://www.w3.org/2000/svg" width="24" height="24" viewBox="0 0 24 24">
<title>mic-off</title>
<path d="M23.7 22.3l-5.9-5.9c0-0.1-0.1-0.1-0.1-0.2 0 0-0.1-0.1-0.1-0.1l-7.9-7.8c0 0 0 0 0 0l-8-8c-0.4-0.4-1-0.4-1.4 0s-0.4 1 0 1.4l7.7 7.7v2.6c0 1.1 0.4 2.1 1.2 2.8 0.7 0.8 1.7 1.2 2.8 1.2 0 0 0 0 0 0 0.7 0 1.4-0.2 2-0.6l1.5 1.5c-1 0.7-2.1 1.1-3.3 1.1-0.1 0-0.1 0-0.2 0s-0.1 0-0.2 0c-1.5 0-2.9-0.6-4-1.7-1.2-1.1-1.8-2.7-1.8-4.3v-2c0-0.6-0.4-1-1-1s-1 0.4-1 1v2c0 2.2 0.9 4.3 2.4 5.8 1.3 1.3 2.9 2 4.6 2.2v2h-3c-0.6 0-1 0.4-1 1s0.4 1 1 1h8c0.6 0 1-0.4 1-1s-0.4-1-1-1h-3v-2c1.4-0.2 2.8-0.7 3.9-1.6l5.4 5.4c0.2 0.2 0.5 0.3 0.7 0.3s0.5-0.1 0.7-0.3c0.4-0.5 0.4-1.1 0-1.5zM12 14c0 0 0 0 0 0-0.5 0-1-0.2-1.4-0.6s-0.6-0.9-0.6-1.4v-0.6l2.5 2.5c-0.2 0.1-0.3 0.1-0.5 0.1z"></path>
<path d="M8.9 4.4c0.5 0.1 1-0.3 1.1-0.8 0.2-0.9 1-1.6 2-1.6 0 0 0 0 0 0 0.5 0 1 0.2 1.4 0.6s0.6 0.9 0.6 1.4v5.3c0 0.6 0.4 1 1 1s1-0.4 1-1v-5.3c0-1.1-0.4-2.1-1.2-2.8-0.7-0.8-1.7-1.2-2.8-1.2 0 0 0 0 0 0-1.9 0-3.5 1.3-3.9 3.2-0.1 0.5 0.2 1.1 0.8 1.2z"></path>
<path d="M18.7 14.2c0.1 0 0.1 0 0.2 0 0.5 0 0.9-0.3 1-0.8s0.1-0.9 0.1-1.4v-2c0-0.6-0.4-1-1-1s-1 0.4-1 1v2c0 0.4 0 0.7-0.1 1.1-0.1 0.5 0.3 1 0.8 1.1z"></path>
</svg>
