<!-- Generated by IcoMoon.io -->
<svg version="1.1" xmlns="http://www.w3.org/2000/svg" width="24" height="24" viewBox="0 0 24 24">
<title>mic</title>
<path d="M12 16c2.2 0 4-1.8 4-4v-8c0-2.2-1.8-4-4-4s-4 1.8-4 4v8c0 2.2 1.8 4 4 4zM10 4c0-1.1 0.9-2 2-2s2 0.9 2 2v8c0 1.1-0.9 2-2 2s-2-0.9-2-2v-8z"></path>
<path d="M19 9c-0.6 0-1 0.4-1 1v2c0 3.3-2.7 6-6 6s-6-2.7-6-6v-2c0-0.6-0.4-1-1-1s-1 0.4-1 1v2c0 4.1 3.1 7.4 7 7.9v2.1h-3c-0.6 0-1 0.4-1 1s0.4 1 1 1h8c0.6 0 1-0.4 1-1s-0.4-1-1-1h-3v-2.1c3.9-0.5 7-3.9 7-7.9v-2c0-0.6-0.4-1-1-1z"></path>
</svg>
