<!-- Generated by IcoMoon.io -->
<svg version="1.1" xmlns="http://www.w3.org/2000/svg" width="24" height="24" viewBox="0 0 24 24">
<title>paperclip</title>
<path d="M22.1 10.3c-0.4-0.4-1-0.4-1.4 0l-9.2 9.2c-2 2-5.1 2-7.1 0s-2-5.1 0-7.1l9.2-9.2c1.1-1.1 3.1-1.1 4.2 0 1.2 1.2 1.2 3.1 0 4.2l-9.2 9.2c-0.4 0.4-1 0.4-1.4 0-0.1-0.1-0.2-0.3-0.2-0.6s0.1-0.5 0.3-0.7l8.5-8.5c0.4-0.4 0.4-1 0-1.4s-1-0.4-1.4 0l-8.5 8.5c-0.6 0.5-0.9 1.3-0.9 2.1s0.3 1.6 0.9 2.1c1.2 1.2 3.1 1.2 4.2 0l9.2-9.2c2-2 2-5.1 0-7.1-0.9-0.9-2.2-1.5-3.5-1.5s-2.6 0.5-3.5 1.5l-9.2 9.2c-2.7 2.7-2.7 7.2 0 9.9 1.4 1.4 3.2 2 5 2s3.6-0.7 5-2l9.2-9.2c0.2-0.3 0.2-1-0.2-1.4z"></path>
</svg>
