<!-- Generated by IcoMoon.io -->
<svg version="1.1" xmlns="http://www.w3.org/2000/svg" width="32" height="32" viewBox="0 0 32 32">
<title>connection</title>
<path d="M15.999 17.457c2.41 0 4.596 0.981 6.18 2.563l-2.060 2.060c-1.055-1.055-2.512-1.709-4.119-1.709s-3.064 0.654-4.119 1.709l-2.060-2.060c1.582-1.582 3.768-2.563 6.18-2.563zM5.695 15.897c2.753-2.753 6.411-4.268 10.303-4.268s7.551 1.515 10.303 4.268l-2.060 2.060c-2.202-2.202-5.129-3.414-8.243-3.414s-6.041 1.212-8.243 3.414l-2.060-2.060zM23.94 7.404c2.429 1.027 4.61 2.499 6.484 4.371v0l-2.060 2.060c-3.303-3.302-7.694-5.122-12.364-5.122s-9.062 1.819-12.364 5.122l-2.060-2.060c1.872-1.872 4.055-3.344 6.484-4.371 2.517-1.064 5.187-1.604 7.941-1.604s5.425 0.539 7.941 1.604zM14.541 24.743c0-0.804 0.653-1.457 1.457-1.457s1.457 0.653 1.457 1.457c0 0.804-0.653 1.457-1.457 1.457s-1.457-0.653-1.457-1.457z"></path>
</svg>
