<!-- Generated by IcoMoon.io -->
<svg version="1.1" xmlns="http://www.w3.org/2000/svg" width="24" height="24" viewBox="0 0 24 24">
<title>unlock</title>
<path d="M19 10h-11v-3c0-1.1 0.4-2.1 1.2-2.8 0.7-0.8 1.7-1.2 2.8-1.2 0 0 0 0 0 0 1.9 0 3.5 1.3 3.9 3.2 0.1 0.5 0.7 0.9 1.2 0.8s0.9-0.6 0.8-1.2c-0.6-2.8-3.1-4.8-5.9-4.8 0 0 0 0 0 0-1.6 0-3.1 0.6-4.2 1.8-1.2 1.1-1.8 2.6-1.8 4.2v3h-1c-1.7 0-3 1.3-3 3v7c0 1.7 1.3 3 3 3h14c1.7 0 3-1.3 3-3v-7c0-1.7-1.3-3-3-3zM20 20c0 0.6-0.4 1-1 1h-14c-0.6 0-1-0.4-1-1v-7c0-0.6 0.4-1 1-1h14c0.6 0 1 0.4 1 1v7z"></path>
</svg>
