<!-- Generated by IcoMoon.io -->
<svg version="1.1" xmlns="http://www.w3.org/2000/svg" width="24" height="24" viewBox="0 0 24 24">
<title>upload-cloud</title>
<path d="M23.3 11.1c-1.1-1.9-3.1-3.1-5.3-3.1h-0.5c-1.5-4.4-6.2-6.9-10.7-5.7-2.4 0.6-4.3 2.1-5.6 4.1s-1.6 4.5-1 6.8c0.4 1.4 1 2.6 2 3.7 0.4 0.4 1 0.5 1.4 0.1s0.5-1 0.1-1.4c-0.7-0.8-1.3-1.8-1.5-2.9-0.5-1.8-0.2-3.6 0.8-5.3 0.9-1.6 2.5-2.8 4.3-3.2 3.7-1 7.6 1.3 8.5 5 0.1 0.4 0.5 0.7 1 0.7h1.2c1.5 0 2.8 0.8 3.5 2.1 0.5 0.9 0.6 2 0.3 3s-1 1.9-1.9 2.4c-0.5 0.3-0.7 0.9-0.4 1.4 0.2 0.3 0.5 0.5 0.9 0.5 0.2 0 0.3 0 0.5-0.1 1.4-0.8 2.4-2 2.9-3.6 0.4-1.4 0.2-3.1-0.5-4.5z"></path>
<path d="M12.7 11.3c-0.1-0.1-0.2-0.2-0.3-0.2-0.2-0.1-0.5-0.1-0.8 0-0.1 0.1-0.2 0.1-0.3 0.2l-4 4c-0.4 0.4-0.4 1 0 1.4s1 0.4 1.4 0l2.3-2.3v6.6c0 0.6 0.4 1 1 1s1-0.4 1-1v-6.6l2.3 2.3c0.2 0.2 0.5 0.3 0.7 0.3s0.5-0.1 0.7-0.3c0.4-0.4 0.4-1 0-1.4l-4-4z"></path>
</svg>
