<!-- Generated by IcoMoon.io -->
<svg version="1.1" xmlns="http://www.w3.org/2000/svg" width="24" height="24" viewBox="0 0 24 24">
<title>volume-x</title>
<path d="M11.4 4.1c-0.3-0.2-0.8-0.1-1.1 0.1l-4.7 3.8h-3.6c-0.6 0-1 0.4-1 1v6c0 0.6 0.4 1 1 1h3.6l4.7 3.8c0.2 0.1 0.4 0.2 0.6 0.2 0.1 0 0.3 0 0.4-0.1 0.3-0.2 0.6-0.5 0.6-0.9v-14c0.1-0.4-0.1-0.7-0.5-0.9zM10 16.9l-3.4-2.7c-0.2-0.1-0.4-0.2-0.6-0.2h-3v-4h3c0.2 0 0.4-0.1 0.6-0.2l3.4-2.7v9.8z"></path>
<path d="M21.4 12l2.3-2.3c0.4-0.4 0.4-1 0-1.4s-1-0.4-1.4 0l-2.3 2.3-2.3-2.3c-0.4-0.4-1-0.4-1.4 0s-0.4 1 0 1.4l2.3 2.3-2.3 2.3c-0.4 0.4-0.4 1 0 1.4 0.2 0.2 0.5 0.3 0.7 0.3s0.5-0.1 0.7-0.3l2.3-2.3 2.3 2.3c0.2 0.2 0.5 0.3 0.7 0.3s0.5-0.1 0.7-0.3c0.4-0.4 0.4-1 0-1.4l-2.3-2.3z"></path>
</svg>
