<!-- Generated by IcoMoon.io -->
<svg version="1.1" xmlns="http://www.w3.org/2000/svg" width="24" height="24" viewBox="0 0 24 24">
<title>wifi</title>
<path d="M4.4 11.8c-0.4 0.4-0.5 1-0.1 1.4 0.2 0.2 0.5 0.4 0.8 0.4 0.2 0 0.5-0.1 0.6-0.2 3.7-3.1 9.1-3.1 12.8 0 0.4 0.4 1.1 0.3 1.4-0.1 0.4-0.4 0.3-1.1-0.1-1.4-4.5-3.8-11-3.8-15.4-0.1z"></path>
<path d="M23.2 8.2c-6.4-5.6-16.1-5.6-22.5 0-0.4 0.4-0.5 1-0.1 1.4 0.3 0.3 0.5 0.4 0.8 0.4 0.2 0 0.5-0.1 0.7-0.2 5.7-5 14.2-5 19.8 0 0.4 0.4 1 0.3 1.4-0.1 0.4-0.5 0.4-1.1-0.1-1.5z"></path>
<path d="M8 15.3c-0.5 0.3-0.6 0.9-0.2 1.4 0.3 0.4 0.9 0.6 1.4 0.2 1.7-1.2 4.1-1.2 5.8 0 0.2 0.1 0.4 0.2 0.6 0.2 0.3 0 0.6-0.1 0.8-0.4 0.3-0.5 0.2-1.1-0.2-1.4-2.6-1.7-5.8-1.7-8.2 0z"></path>
<path d="M11.3 19.3c-0.2 0.2-0.3 0.4-0.3 0.7s0.1 0.5 0.3 0.7c0.2 0.2 0.4 0.3 0.7 0.3s0.5-0.1 0.7-0.3c0.2-0.2 0.3-0.5 0.3-0.7s-0.1-0.5-0.3-0.7c-0.4-0.4-1-0.4-1.4 0z"></path>
</svg>
