<!-- Generated by IcoMoon.io -->
<svg version="1.1" xmlns="http://www.w3.org/2000/svg" width="24" height="24" viewBox="0 0 24 24">
<title>wifi-off</title>
<path d="M23.7 22.3l-16.9-16.9c0 0 0 0 0 0l-5.1-5.1c-0.4-0.4-1-0.4-1.4 0s-0.4 1 0 1.4l4.1 4.1c-1.3 0.7-2.5 1.5-3.6 2.5-0.4 0.4-0.5 1-0.1 1.4 0.2 0.2 0.4 0.3 0.7 0.3 0.2 0 0.5-0.1 0.7-0.3 1.1-1 2.4-1.8 3.8-2.4l2.3 2.3c-1.4 0.5-2.7 1.2-3.9 2.1-0.4 0.4-0.5 1-0.1 1.4 0.2 0.2 0.5 0.4 0.8 0.4 0.2 0 0.5-0.1 0.6-0.2 1.2-1 2.7-1.7 4.2-2.1l2.8 2.8c-1.6-0.1-3.3 0.3-4.6 1.3-0.5 0.3-0.6 0.9-0.2 1.4 0.3 0.4 0.9 0.6 1.4 0.2 1.7-1.2 4.1-1.2 5.8 0 0.2 0.1 0.4 0.2 0.6 0.2 0.1 0 0.1 0 0.2 0l6.6 6.6c0.2 0.2 0.5 0.3 0.7 0.3s0.5-0.1 0.7-0.3c0.3-0.4 0.3-1-0.1-1.4z"></path>
<path d="M15.8 10.6c-0.2 0.5 0 1.1 0.5 1.3 0.7 0.4 1.4 0.8 2.1 1.4 0.2 0.2 0.4 0.2 0.6 0.2 0.3 0 0.6-0.1 0.8-0.4 0.4-0.4 0.3-1.1-0.1-1.4-0.8-0.6-1.6-1.2-2.5-1.6-0.5-0.2-1.1 0-1.4 0.5z"></path>
<path d="M10.8 6c4-0.3 8.1 1 11.1 3.7 0.2 0.2 0.4 0.2 0.7 0.2s0.6-0.1 0.8-0.3c0.4-0.4 0.3-1-0.1-1.4-3.4-3-8-4.6-12.6-4.2-0.6 0-1 0.5-0.9 1.1 0 0.6 0.4 1 1 0.9z"></path>
<path d="M11.3 19.3c-0.2 0.2-0.3 0.4-0.3 0.7s0.1 0.5 0.3 0.7c0.2 0.2 0.4 0.3 0.7 0.3s0.5-0.1 0.7-0.3c0.2-0.2 0.3-0.5 0.3-0.7s-0.1-0.5-0.3-0.7c-0.4-0.4-1-0.4-1.4 0z"></path>
</svg>
