<!-- Generated by IcoMoon.io -->
<svg version="1.1" xmlns="http://www.w3.org/2000/svg" width="24" height="24" viewBox="0 0 24 24">
<title>x-circle</title>
<path d="M12 1c-6.1 0-11 4.9-11 11s4.9 11 11 11 11-4.9 11-11-4.9-11-11-11zM12 21c-5 0-9-4-9-9s4-9 9-9c5 0 9 4 9 9s-4 9-9 9z"></path>
<path d="M15.7 8.3c-0.4-0.4-1-0.4-1.4 0l-2.3 2.3-2.3-2.3c-0.4-0.4-1-0.4-1.4 0s-0.4 1 0 1.4l2.3 2.3-2.3 2.3c-0.4 0.4-0.4 1 0 1.4 0.2 0.2 0.4 0.3 0.7 0.3s0.5-0.1 0.7-0.3l2.3-2.3 2.3 2.3c0.2 0.2 0.5 0.3 0.7 0.3s0.5-0.1 0.7-0.3c0.4-0.4 0.4-1 0-1.4l-2.3-2.3 2.3-2.3c0.4-0.4 0.4-1 0-1.4z"></path>
</svg>
