<svg xmlns="http://www.w3.org/2000/svg" viewBox="0 0 100 125">
<path d="M3.181 3.173c-1.11 0-2.024 0.914-2.024 2.024v16.867c0 1.109 0.914 2.023 2.024 2.023h9.783v3.373h-1.413c-0.353 0.017-0.659 0.353-0.643 0.706s0.353 0.66 0.706 0.643h8.771c0.357 0.005 0.684-0.318 0.684-0.675s-0.327-0.68-0.684-0.675h-1.349v-3.373h9.783c1.11 0 2.024-0.914 2.024-2.024v-16.866c0-1.11-0.914-2.024-2.024-2.024zM3.181 4.522h25.638c0.386 0 0.675 0.289 0.675 0.675v8.096l-5.978-0.011-2.182-4.659c-0.108-0.241-0.368-0.405-0.632-0.398s-0.516 0.184-0.612 0.43l-3.69 9.35-3.468-10.995c-0.096-0.301-0.425-0.508-0.738-0.464-0.221 0.030-0.422 0.178-0.517 0.38l-2.857 6.029h-6.314v-7.758c0-0.386 0.289-0.675 0.675-0.675zM12.163 9.066l3.532 11.174c0.081 0.267 0.344 0.467 0.622 0.476s0.553-0.173 0.653-0.434l3.805-9.667 1.698 3.626c0.108 0.231 0.356 0.39 0.612 0.39l6.409 0.010v7.421c0 0.386-0.289 0.675-0.675 0.675h-25.638c-0.386 0-0.675-0.289-0.675-0.675v-7.759h6.747c0.255 0 0.504-0.159 0.612-0.39zM14.313 24.087h3.373v3.373h-3.373z"></path>
</svg>