<!-- Generated by IcoMoon.io -->
<svg version="1.1" xmlns="http://www.w3.org/2000/svg" width="32" height="32" viewBox="0 0 32 32">
<title>camera</title>
<path d="M10 17.846c0 3.314 2.686 6 6 6s6-2.686 6-6-2.686-6-6-6-6 2.686-6 6zM28.923 7.692h-6.462c-0.462-1.846-0.923-3.692-2.769-3.692h-7.385c-1.846 0-2.308 1.846-2.769 3.692h-6.462c-1.015 0-1.846 0.831-1.846 1.846v16.615c0 1.015 0.831 1.846 1.846 1.846h25.846c1.015 0 1.846-0.831 1.846-1.846v-16.615c0-1.015-0.831-1.846-1.846-1.846zM16 26.039c-4.525 0-8.193-3.668-8.193-8.193s3.668-8.193 8.193-8.193c4.525 0 8.193 3.668 8.193 8.193s-3.668 8.193-8.193 8.193zM28.923 13.231h-3.692v-1.846h3.692v1.846z"></path>
</svg>
