<!-- Generated by IcoMoon.io -->
<svg version="1.1" xmlns="http://www.w3.org/2000/svg" width="32" height="32" viewBox="0 0 32 32">
<title>chrome</title>
<path d="M8.568 14.082l-4.294-7.436c2.749-3.441 6.979-5.647 11.726-5.647 5.492 0 10.292 2.951 12.906 7.354h-12.24c-0.219-0.019-0.442-0.030-0.668-0.030-3.57 0-6.579 2.451-7.433 5.758zM21.37 10.521h8.597c0.666 1.697 1.033 3.546 1.033 5.479 0 8.227-6.624 14.906-14.829 14.998l6.135-10.626c0.864-1.241 1.371-2.749 1.371-4.372 0-2.143-0.883-4.084-2.306-5.479zM10.551 16c0-3.006 2.445-5.449 5.449-5.449s5.449 2.445 5.449 5.449c0 3.004-2.445 5.449-5.449 5.449s-5.449-2.445-5.449-5.449zM18.057 23.395l-4.294 7.438c-7.223-1.080-12.761-7.311-12.761-14.833 0-2.672 0.699-5.181 1.924-7.354l6.124 10.607c1.226 2.61 3.881 4.423 6.951 4.423 0.712 0 1.401-0.098 2.057-0.279z"></path>
</svg>
