<!-- Generated by IcoMoon.io -->
<svg version="1.1" xmlns="http://www.w3.org/2000/svg" width="32" height="32" viewBox="0 0 32 32">
<title>cloud-upload</title>
<path d="M26.97 13.303c0.070-0.321 0.107-0.654 0.107-0.995 0-2.55-2.066-4.615-4.615-4.615-0.41 0-0.809 0.054-1.187 0.155-0.714-2.232-2.806-3.847-5.274-3.847-2.52 0-4.645 1.682-5.317 3.986-0.655-0.19-1.35-0.294-2.068-0.294-4.078 0-7.385 3.306-7.385 7.385s3.306 7.385 7.385 7.385h3.692v5.538h7.385v-5.538h6.462c2.55 0 4.615-2.066 4.615-4.615 0-2.271-1.639-4.159-3.799-4.543zM17.846 20.615v5.538h-3.692v-5.538h-4.615l6.462-6.462 6.462 6.462h-4.615z"></path>
</svg>
