<!-- Generated by IcoMoon.io -->
<svg version="1.1" xmlns="http://www.w3.org/2000/svg" width="32" height="32" viewBox="0 0 32 32">
<title>cloud-download</title>
<path d="M26.911 11.015c-0.094-3.704-3.122-6.679-6.847-6.679-2.181 0-4.124 1.022-5.379 2.612-0.704-0.91-1.805-1.496-3.043-1.496-2.124 0-3.846 1.724-3.846 3.848 0 0.186 0.013 0.367 0.039 0.545-0.322-0.059-0.656-0.090-0.995-0.090-3.080 0-5.576 2.498-5.576 5.58s2.496 5.58 5.576 5.58h2.642l6.519 6.749 6.519-6.749h3.209c2.767-0.006 5.009-2.251 5.009-5.021 0-2.363-1.632-4.344-3.828-4.878zM16.002 24.599l-5.526-5.526h3.684v-5.526h3.684v5.526h3.684l-5.526 5.526z"></path>
</svg>
