<!-- Generated by IcoMoon.io -->
<svg version="1.1" xmlns="http://www.w3.org/2000/svg" width="32" height="32" viewBox="0 0 32 32">
<title>cross</title>
<path d="M16 1.778c-7.854 0-14.222 6.368-14.222 14.222s6.368 14.222 14.222 14.222 14.222-6.368 14.222-14.222-6.368-14.222-14.222-14.222zM16 26.667c-5.883 0-10.667-4.784-10.667-10.667s4.784-10.667 10.667-10.667 10.667 4.784 10.667 10.667-4.784 10.667-10.667 10.667z"></path>
<path d="M20.839 11.186l-0.025-0.025c-0.66-0.66-1.73-0.66-2.389 0l-2.425 2.425-2.425-2.425c-0.66-0.66-1.73-0.66-2.389 0l-0.025 0.025c-0.66 0.66-0.66 1.73 0 2.389l2.425 2.425-2.425 2.425c-0.66 0.66-0.66 1.73 0 2.389l0.025 0.025c0.66 0.66 1.73 0.66 2.389 0l2.425-2.425 2.425 2.425c0.66 0.66 1.73 0.66 2.389 0l0.025-0.025c0.66-0.66 0.66-1.73 0-2.389l-2.425-2.425 2.425-2.425c0.66-0.66 0.66-1.73 0-2.389z"></path>
</svg>
