<!-- Generated by IcoMoon.io -->
<svg version="1.1" xmlns="http://www.w3.org/2000/svg" width="18" height="18" viewBox="0 0 18 18">
<title>cross</title>
<path d="M9 1c-4.418 0-8 3.582-8 8s3.582 8 8 8 8-3.582 8-8-3.582-8-8-8zM9 15c-3.309 0-6-2.691-6-6s2.691-6 6-6 6 2.691 6 6-2.691 6-6 6z"></path>
<path d="M11.722 6.292l-0.014-0.014c-0.371-0.371-0.973-0.371-1.344 0l-1.364 1.364-1.364-1.364c-0.371-0.371-0.973-0.371-1.344 0l-0.014 0.014c-0.371 0.371-0.371 0.973 0 1.344l1.364 1.364-1.364 1.364c-0.371 0.371-0.371 0.973 0 1.344l0.014 0.014c0.371 0.371 0.973 0.371 1.344 0l1.364-1.364 1.364 1.364c0.371 0.371 0.973 0.371 1.344 0l0.014-0.014c0.371-0.371 0.371-0.973 0-1.344l-1.364-1.364 1.364-1.364c0.371-0.371 0.371-0.973 0-1.344z"></path>
</svg>
