<!-- Generated by IcoMoon.io -->
<svg version="1.1" xmlns="http://www.w3.org/2000/svg" width="18" height="18" viewBox="0 0 18 18">
<title>download</title>
<path d="M16.991 7.5c-0.016-0.376-0.050-0.761-0.090-1.154-0.279-2.725-2.453-4.96-5.166-5.298-2.927-0.365-5.494 1.399-6.387 3.952-0.112-0.010-0.225-0.017-0.34-0.017-2.195 0-4.010 1.791-4.010 3.99v0.996c0 0.545 0.475 0.988 1.018 0.988h0.020c0.543 0 0.958-0.467 0.958-1.011v-0.786c-0.115-1.187 0.852-2.186 2.014-2.186 0.058 0 0.115 0.005 0.172 0.010l0.77-0.010c0.452 0.038 0.869-0.159 1.019-0.587l0.216-0.617c0.524-1.499 1.847-2.623 3.426-2.763 2.445-0.217 4.557 1.844 4.394 4.283l-0.003 0.209v2.562h0.010c0.029 0.521 0.486 0.937 1.013 0.937h0.020c0.519 0 0.915-0.426 0.951-0.937h0.007v-2.562h-0.011z"></path>
<path d="M11.282 12.306l-1.287 1.317v-3.633c0-0.547-0.441-0.99-0.985-0.99h-0.020c-0.544 0-0.985 0.443-0.985 0.99v3.481l-0.129-0.021-1.118-1.114c-0.353-0.351-0.918-0.437-1.322-0.146-0.513 0.369-0.555 1.085-0.127 1.511l3.022 3.008c0.187 0.186 0.44 0.291 0.705 0.291s0.518-0.105 0.705-0.291l2.952-3c0.389-0.387 0.389-1.015 0-1.403s-1.021-0.388-1.41 0z"></path>
</svg>
