<!-- Generated by IcoMoon.io -->
<svg version="1.1" xmlns="http://www.w3.org/2000/svg" width="32" height="32" viewBox="0 0 32 32">
<title>eye</title>
<path d="M16 4.556c-5.335 0-10.668 3.814-14.714 11.444 4.046 7.629 9.38 11.444 14.714 11.444s10.668-3.814 14.714-11.444c-4.046-7.629-9.38-11.444-14.714-11.444zM16 24.175c-3.88 0-7.813-2.956-10.959-8.175 3.146-5.219 7.081-8.175 10.959-8.175s7.813 2.956 10.959 8.175c-3.146 5.219-7.081 8.175-10.959 8.175z"></path>
<path d="M19.27 16c0 1.807-1.465 3.27-3.27 3.27s-3.27-1.465-3.27-3.27 1.465-3.27 3.27-3.27 3.27 1.465 3.27 3.27z"></path>
</svg>
