<!-- Generated by IcoMoon.io -->
<svg version="1.1" xmlns="http://www.w3.org/2000/svg" width="32" height="32" viewBox="0 0 32 32">
<title>github</title>
<path d="M16 1.392c-8.272 0-14.979 6.707-14.979 14.979 0 6.619 4.291 12.232 10.244 14.213 0.749 0.139 1.024-0.326 1.024-0.721 0-0.358-0.015-1.537-0.021-2.788-4.168 0.906-5.046-1.767-5.046-1.767-0.682-1.732-1.663-2.192-1.663-2.192-1.359-0.931 0.103-0.91 0.103-0.91 1.503 0.105 2.295 1.543 2.295 1.543 1.337 2.29 3.505 1.627 4.359 1.245 0.135-0.968 0.522-1.629 0.951-2.003-3.327-0.378-6.825-1.663-6.825-7.403 0-1.635 0.586-2.971 1.543-4.020-0.155-0.378-0.668-1.9 0.144-3.964 0 0 1.258-0.403 4.121 1.535 1.195-0.331 2.475-0.498 3.748-0.504 1.273 0.006 2.556 0.172 3.752 0.504 2.859-1.938 4.115-1.535 4.115-1.535 0.814 2.063 0.303 3.587 0.148 3.964 0.96 1.049 1.541 2.385 1.541 4.020 0 5.754-3.505 7.019-6.84 7.39 0.537 0.464 1.017 1.376 1.017 2.773 0 2.003-0.017 3.617-0.017 4.11 0 0.399 0.27 0.865 1.030 0.719 5.948-1.983 10.234-7.596 10.234-14.211 0-8.272-6.707-14.979-14.979-14.979z"></path>
</svg>
