<!-- Generated by IcoMoon.io -->
<svg version="1.1" xmlns="http://www.w3.org/2000/svg" width="18" height="18" viewBox="0 0 18 18">
<title>home</title>
<path d="M17.577 6.701l-7.817-5.518c-0.168-0.119-0.37-0.183-0.577-0.183h-0.365c-0.207 0-0.408 0.064-0.577 0.183l-7.817 5.518c-0.266 0.187-0.423 0.492-0.423 0.817v8.482c0 0.552 0.448 1 1 1h16c0.552 0 1-0.448 1-1v-8.482c0-0.325-0.158-0.63-0.423-0.817zM16 14.5c0 0.276-0.224 0.5-0.5 0.5h-7.5v-5.5c0-0.276-0.224-0.5-0.5-0.5h-3c-0.276 0-0.5 0.224-0.5 0.5v5.5h-1.5c-0.276 0-0.5-0.224-0.5-0.5v-6.205c0-0.163 0.079-0.315 0.211-0.409l6.789-4.791 6.788 4.791c0.133 0.094 0.212 0.246 0.212 0.409v6.205z"></path>
<path d="M13.5 9h-3c-0.276 0-0.5 0.224-0.5 0.5v1c0 0.276 0.224 0.5 0.5 0.5h3c0.276 0 0.5-0.224 0.5-0.5v-1c0-0.276-0.224-0.5-0.5-0.5z"></path>
</svg>
