<!-- Generated by IcoMoon.io -->
<svg version="1.1" xmlns="http://www.w3.org/2000/svg" width="32" height="32" viewBox="0 0 32 32">
<title>home</title>
<path d="M30.176 12.2l-12.92-9.12c-0.278-0.197-0.612-0.302-0.954-0.302h-0.603c-0.342 0-0.674 0.106-0.954 0.302l-12.92 9.12c-0.44 0.309-0.699 0.813-0.699 1.35v14.019c0 0.912 0.74 1.653 1.653 1.653h26.444c0.912 0 1.653-0.74 1.653-1.653v-14.019c0-0.537-0.261-1.041-0.699-1.35zM27.569 25.090c0 0.456-0.37 0.826-0.826 0.826h-12.396v-9.090c0-0.456-0.37-0.826-0.826-0.826h-4.958c-0.456 0-0.826 0.37-0.826 0.826v9.090h-2.479c-0.456 0-0.826-0.37-0.826-0.826v-10.255c0-0.269 0.131-0.521 0.349-0.676l11.221-7.918 11.219 7.918c0.22 0.155 0.35 0.407 0.35 0.676v10.255z"></path>
<path d="M23.438 16h-4.958c-0.456 0-0.826 0.37-0.826 0.826v1.653c0 0.456 0.37 0.826 0.826 0.826h4.958c0.456 0 0.826-0.37 0.826-0.826v-1.653c0-0.456-0.37-0.826-0.826-0.826z"></path>
</svg>
