<!-- Generated by IcoMoon.io -->
<svg version="1.1" xmlns="http://www.w3.org/2000/svg" width="32" height="32" viewBox="0 0 32 32">
<title>image</title>
<path d="M28.996 4.857c0.002 0.002 0.002 0.002 0.004 0.004v22.278c-0.002 0.002-0.002 0.002-0.004 0.004h-25.993c-0.002-0.002-0.002-0.002-0.004-0.004v-22.278c0.002-0.002 0.002-0.002 0.004-0.004h25.993zM29 3h-26c-1.021 0-1.857 0.836-1.857 1.857v22.286c0 1.021 0.836 1.857 1.857 1.857h26c1.021 0 1.857-0.836 1.857-1.857v-22.286c0-1.021-0.836-1.857-1.857-1.857v0z"></path>
<path d="M25.286 9.5c0 1.538-1.248 2.786-2.786 2.786s-2.786-1.248-2.786-2.786 1.248-2.786 2.786-2.786 2.786 1.248 2.786 2.786z"></path>
<path d="M27.143 25.286h-22.286v-3.714l6.5-11.143 7.429 9.286h1.857l6.5-5.571z"></path>
</svg>
