<!-- Generated by IcoMoon.io -->
<svg version="1.1" xmlns="http://www.w3.org/2000/svg" width="32" height="32" viewBox="0 0 32 32">
<title>images</title>
<path d="M29.222 6.083h-1.653v-1.653c0-0.909-0.744-1.653-1.653-1.653h-23.139c-0.909 0-1.653 0.744-1.653 1.653v19.833c0 0.909 0.744 1.653 1.653 1.653h1.653v1.653c0 0.909 0.744 1.653 1.653 1.653h23.139c0.909 0 1.653-0.744 1.653-1.653v-19.833c0-0.909-0.744-1.653-1.653-1.653zM4.431 7.736v16.528h-1.649c-0.002-0.002-0.002-0.002-0.003-0.003v-19.827c0.002-0.002 0.002-0.002 0.003-0.003h23.132c0.002 0.002 0.002 0.002 0.003 0.003v1.649h-19.833c-0.909 0-1.653 0.744-1.653 1.653v0zM29.222 27.566c-0.002 0.002-0.002 0.002-0.003 0.003h-23.132c-0.002-0.002-0.002-0.002-0.003-0.003v-19.827c0.002-0.002 0.002-0.002 0.003-0.003h23.132c0.002 0.002 0.002 0.002 0.003 0.003v19.827z"></path>
<path d="M25.917 11.868c0 1.369-1.111 2.479-2.479 2.479s-2.479-1.111-2.479-2.479 1.111-2.479 2.479-2.479 2.479 1.111 2.479 2.479z"></path>
<path d="M27.569 25.917h-19.833v-3.306l5.785-9.917 6.611 8.264h1.653l5.785-4.958z"></path>
</svg>
