<!-- Generated by IcoMoon.io -->
<svg version="1.1" xmlns="http://www.w3.org/2000/svg" width="18" height="18" viewBox="0 0 18 18">
<title>left</title>
<path d="M9 1c-4.418 0-8 3.582-8 8s3.582 8 8 8 8-3.582 8-8-3.582-8-8-8zM9 15c-3.309 0-6-2.691-6-6s2.691-6 6-6 6 2.691 6 6-2.691 6-6 6z"></path>
<path d="M12.010 8.002h-3.633l1.317-1.293c0.388-0.392 0.388-1.025 0-1.417s-1.016-0.391-1.403 0l-3 2.967c-0.186 0.188-0.291 0.442-0.291 0.709 0 0.011 0 0.023 0.001 0.034s-0.001 0.023-0.001 0.034c0 0.266 0.105 0.521 0.291 0.709l3 2.967c0.388 0.391 1.016 0.391 1.403 0s0.388-1.025 0-1.417l-1.317-1.294h3.633c0.547 0 0.99-0.443 0.99-0.99v-0.018c0-0.547-0.443-0.99-0.99-0.99z"></path>
</svg>
