<!-- Generated by IcoMoon.io -->
<svg version="1.1" xmlns="http://www.w3.org/2000/svg" width="32" height="32" viewBox="0 0 32 32">
<title>mic</title>
<path d="M15.094 21.438c2.503 0 4.531-2.028 4.531-4.531v-10.875c0-2.503-2.028-4.531-4.531-4.531s-4.531 2.028-4.531 4.531v10.875c0 2.503 2.028 4.531 4.531 4.531zM21.438 14.188v2.719c0 3.504-2.84 6.344-6.344 6.344s-6.344-2.84-6.344-6.344v-2.719h-1.813v2.719c0 4.198 3.172 7.654 7.25 8.105v3.676h-3.625v1.813h9.063v-1.813h-3.625v-3.676c4.078-0.451 7.25-3.908 7.25-8.105v-2.719h-1.813z"></path>
</svg>
