<!-- Generated by IcoMoon.io -->
<svg version="1.1" xmlns="http://www.w3.org/2000/svg" width="32" height="32" viewBox="0 0 32 32">
<title>notification</title>
<path d="M16 3.813c-3.255 0-6.317 1.268-8.617 3.57s-3.57 5.363-3.57 8.617c0 3.255 1.267 6.317 3.57 8.617s5.363 3.57 8.617 3.57c3.255 0 6.317-1.267 8.617-3.57s3.57-5.363 3.57-8.617c0-3.255-1.267-6.317-3.57-8.617s-5.363-3.57-8.617-3.57zM16 1v0c8.284 0 15 6.716 15 15s-6.716 15-15 15c-8.284 0-15-6.716-15-15s6.716-15 15-15zM14.125 21.625h3.75v3.75h-3.75zM14.125 6.625h3.75v11.25h-3.75z"></path>
</svg>
