<!-- Generated by IcoMoon.io -->
<svg version="1.1" xmlns="http://www.w3.org/2000/svg" width="32" height="32" viewBox="0 0 32 32">
<title>opera</title>
<path d="M31 16v0 0c0 4.442-1.933 8.438-5.004 11.181-3.849 1.875-7.436 0.563-8.619-0.257 3.78-0.827 6.632-5.396 6.632-10.922s-2.854-10.095-6.632-10.928c1.189-0.821 4.776-2.132 8.619-0.259 3.069 2.749 5.004 6.744 5.004 11.186v0 0z"></path>
<path d="M11.061 7.546c-1.658 1.958-2.73 4.851-2.801 8.104 0 0.006 0 0.698 0 0.709 0.071 3.246 1.149 6.141 2.807 8.098 2.151 2.796 5.349 4.564 8.923 4.564 2.197 0 4.254-0.668 6.011-1.834-2.661 2.374-6.163 3.814-10.001 3.814-0.24 0-0.48-0.006-0.714-0.017-7.952-0.375-14.286-6.938-14.286-14.983 0-8.286 6.714-15 15-15 0.017 0 0.036 0 0.058 0 3.819 0.011 7.301 1.453 9.943 3.821-1.759-1.166-3.814-1.839-6.011-1.839-3.574 0-6.773 1.77-8.931 4.564z"></path>
</svg>
