<!-- Generated by IcoMoon.io -->
<svg version="1.1" xmlns="http://www.w3.org/2000/svg" width="32" height="32" viewBox="0 0 32 32">
<title>plus</title>
<path d="M16 1.778c-7.854 0-14.222 6.368-14.222 14.222s6.368 14.222 14.222 14.222 14.222-6.368 14.222-14.222-6.368-14.222-14.222-14.222zM16 26.667c-5.883 0-10.667-4.784-10.667-10.667s4.784-10.667 10.667-10.667 10.667 4.784 10.667 10.667-4.784 10.667-10.667 10.667z"></path>
<path d="M21.351 14.222h-3.573v-3.573c0-0.972-0.788-1.76-1.76-1.76h-0.036c-0.972 0-1.76 0.788-1.76 1.76v3.573h-3.573c-0.972 0-1.76 0.788-1.76 1.76v0.036c0 0.972 0.788 1.76 1.76 1.76h3.573v3.573c0 0.972 0.788 1.76 1.76 1.76h0.036c0.972 0 1.76-0.788 1.76-1.76v-3.573h3.573c0.972 0 1.76-0.788 1.76-1.76v-0.036c0-0.972-0.788-1.76-1.76-1.76z"></path>
</svg>
