<!-- Generated by IcoMoon.io -->
<svg version="1.1" xmlns="http://www.w3.org/2000/svg" width="32" height="32" viewBox="0 0 32 32">
<title>safari</title>
<path d="M16 1c-8.286 0-15 6.714-15 15s6.714 15 15 15 15-6.714 15-15-6.714-15-15-15zM29.078 14.852l-0.030-0.311c0.006 0.105 0.017 0.204 0.030 0.311zM27.027 8.875l-0.212-0.317c0.069 0.105 0.141 0.21 0.212 0.317zM26.213 7.756l-0.129-0.157c0.047 0.053 0.088 0.105 0.129 0.157zM24.396 5.911l-0.157-0.129c0.058 0.047 0.105 0.088 0.157 0.129zM23.442 5.183l-0.317-0.21c0.105 0.071 0.212 0.141 0.317 0.21zM17.459 2.958l-0.317-0.030c0.105 0.006 0.212 0.017 0.317 0.030zM14.852 2.922l-0.317 0.030c0.105-0.006 0.21-0.017 0.317-0.030zM8.875 4.973l-0.317 0.21c0.105-0.071 0.21-0.141 0.317-0.21zM7.756 5.787l-0.152 0.124c0.053-0.041 0.099-0.082 0.152-0.124zM5.911 7.604l-0.129 0.157c0.047-0.053 0.088-0.105 0.129-0.157zM5.183 8.558l-0.21 0.317c0.071-0.105 0.141-0.21 0.21-0.317zM2.958 14.541l-0.030 0.317c0.006-0.105 0.017-0.21 0.030-0.317zM2.922 17.149l0.030 0.317c-0.006-0.105-0.017-0.212-0.030-0.317zM4.973 23.119l0.21 0.317c-0.071-0.099-0.141-0.204-0.21-0.317zM5.219 23.489l2.338-1.564-0.259-0.392-2.338 1.564c-1.061-1.646-1.759-3.538-1.993-5.578l1.401-0.141-0.047-0.469-1.401 0.141c-0.022-0.27-0.036-0.546-0.041-0.821h2.813v-0.469h-2.813c0.006-0.276 0.017-0.546 0.041-0.821l1.401 0.135 0.047-0.469-1.401-0.135c0.234-2.040 0.938-3.932 1.999-5.578l2.338 1.564 0.259-0.392-2.344-1.553c0.157-0.223 0.317-0.444 0.486-0.656l1.084 0.891 0.298-0.364-1.084-0.891c0.176-0.21 0.364-0.411 0.551-0.609l1.986 1.986 0.334-0.334-1.986-1.986c0.199-0.188 0.397-0.375 0.604-0.551l0.891 1.089 0.364-0.298-0.891-1.084c0.217-0.171 0.433-0.334 0.656-0.493l1.564 2.338 0.392-0.259-1.564-2.338c1.646-1.061 3.54-1.759 5.578-1.993l0.141 1.401 0.469-0.047-0.141-1.401c0.27-0.022 0.546-0.036 0.821-0.041v2.813h0.469v-2.813c0.276 0.006 0.546 0.017 0.821 0.041l-0.135 1.401 0.469 0.047 0.135-1.401c2.040 0.234 3.932 0.938 5.578 1.999l-1.564 2.338 0.392 0.259 1.564-2.338c0.223 0.157 0.446 0.317 0.656 0.486l-0.891 1.084 0.364 0.298 0.891-1.084c0.212 0.176 0.411 0.364 0.609 0.551l-0.75 0.733-10.254 6.838-6.838 10.254-0.733 0.733c-0.188-0.199-0.375-0.399-0.551-0.604l1.084-0.891-0.298-0.364-1.084 0.891c-0.171-0.212-0.328-0.433-0.486-0.656zM5.911 24.396c-0.041-0.052-0.082-0.099-0.124-0.152l0.124 0.152zM7.604 26.089l0.152 0.124c-0.053-0.041-0.099-0.082-0.152-0.124zM8.558 26.811l0.317 0.212c-0.105-0.064-0.21-0.135-0.317-0.212zM14.541 29.043l0.317 0.030c-0.105-0.006-0.21-0.017-0.317-0.030zM17.149 29.078l0.311-0.030c-0.105 0.006-0.204 0.017-0.311 0.030zM23.125 27.027l0.317-0.212c-0.105 0.069-0.212 0.141-0.317 0.212zM24.244 26.213l0.157-0.129c-0.052 0.047-0.105 0.088-0.157 0.129zM25.27 25.293l0.023-0.023c-0.006 0.006-0.017 0.017-0.023 0.023zM26.089 24.396l0.129-0.157c-0.047 0.052-0.088 0.105-0.129 0.157zM26.296 24.145l-1.084-0.891-0.298 0.364 1.084 0.891c-0.176 0.212-0.364 0.411-0.551 0.609l-1.986-1.986-0.334 0.334 1.986 1.986c-0.199 0.188-0.399 0.375-0.604 0.551l-0.891-1.089-0.364 0.298 0.891 1.084c-0.218 0.171-0.433 0.334-0.656 0.491l-1.564-2.338-0.392 0.257 1.564 2.338c-1.646 1.061-3.538 1.759-5.578 1.993l-0.141-1.401-0.469 0.047 0.141 1.401c-0.27 0.023-0.546 0.036-0.821 0.041v-2.813h-0.469v2.813c-0.276-0.006-0.546-0.017-0.821-0.041l0.135-1.401-0.469-0.047-0.135 1.401c-2.040-0.234-3.932-0.938-5.578-1.999l1.564-2.338-0.392-0.257-1.553 2.338c-0.223-0.157-0.444-0.317-0.656-0.486l0.891-1.084-0.364-0.298-0.891 1.084c-0.21-0.176-0.411-0.364-0.609-0.551l0.739-0.733 10.254-6.838 6.838-10.254 0.733-0.733c0.188 0.199 0.375 0.397 0.551 0.604l-1.084 0.891 0.298 0.364 1.084-0.891c0.171 0.217 0.334 0.433 0.491 0.656l-2.338 1.564 0.257 0.392 2.338-1.564c1.061 1.646 1.759 3.54 1.993 5.578l-1.401 0.141 0.047 0.469 1.401-0.141c0.023 0.27 0.036 0.546 0.041 0.821h-2.813v0.469h2.813c-0.006 0.276-0.017 0.546-0.041 0.821l-1.401-0.135-0.047 0.469 1.401 0.135c-0.234 2.040-0.938 3.932-1.999 5.578l-2.338-1.564-0.257 0.392 2.338 1.564c-0.152 0.212-0.317 0.427-0.486 0.645zM29.078 17.142c-0.011 0.105-0.017 0.212-0.030 0.317l0.030-0.317zM27.027 23.125c-0.069 0.105-0.141 0.212-0.212 0.317l0.212-0.317z"></path>
<path d="M13.671 3.083l0.549 2.758-0.459 0.092-0.549-2.758 0.459-0.092z"></path>
<path d="M18.334 28.919l-0.549-2.758 0.459-0.092 0.549 2.758-0.459 0.092z"></path>
<path d="M12.415 3.37l0.409 1.346-0.448 0.137-0.409-1.346 0.448-0.137z"></path>
<path d="M19.587 28.624l-0.409-1.346 0.448-0.137 0.409 1.346-0.448 0.137z"></path>
<path d="M11.196 3.786l1.076 2.599-0.433 0.18-1.076-2.599 0.433-0.18z"></path>
<path d="M20.808 28.216l-1.076-2.599 0.433-0.18 1.076 2.599-0.433 0.18z"></path>
<path d="M9.602 4.534l0.412-0.221 0.664 1.239-0.412 0.221-0.664-1.239z"></path>
<path d="M22.39 27.464l-0.413 0.221-0.664-1.239 0.413-0.221 0.664 1.239z"></path>
<path d="M4.532 9.608l1.241 0.662-0.221 0.414-1.239-0.662 0.221-0.414z"></path>
<path d="M27.462 22.392l-1.241-0.662 0.221-0.413 1.241 0.662-0.221 0.413z"></path>
<path d="M6.385 12.269l-2.599-1.076 0.18-0.433 2.599 1.076-0.18 0.433z"></path>
<path d="M25.619 19.729l2.599 1.076-0.18 0.433-2.599-1.076 0.18-0.433z"></path>
<path d="M3.507 11.969l1.346 0.409-0.137 0.448-1.346-0.409 0.137-0.448z"></path>
<path d="M28.489 20.033l-1.346-0.409 0.137-0.448 1.346 0.409-0.137 0.448z"></path>
<path d="M3.169 13.21l2.758 0.549-0.092 0.459-2.758-0.549 0.092-0.459z"></path>
<path d="M28.825 18.79l-2.758-0.549 0.092-0.459 2.758 0.549-0.092 0.459z"></path>
<path d="M3.079 18.331l2.758-0.549 0.092 0.459-2.758 0.549-0.092-0.459z"></path>
<path d="M28.915 13.669l-2.758 0.549-0.092-0.459 2.758-0.549 0.092 0.459z"></path>
<path d="M3.372 19.589l1.346-0.409 0.137 0.448-1.346 0.409-0.137-0.448z"></path>
<path d="M28.626 12.417l-1.346 0.409-0.137-0.448 1.346-0.409 0.137 0.448z"></path>
<path d="M3.962 21.242l-0.18-0.433 2.599-1.076 0.18 0.433-2.599 1.076z"></path>
<path d="M28.036 10.763l0.18 0.433-2.599 1.076-0.18-0.433 2.599-1.076z"></path>
<path d="M4.54 22.394l-0.221-0.413 1.239-0.664 0.221 0.413-1.239 0.664z"></path>
<path d="M27.468 9.606l0.221 0.412-1.239 0.664-0.221-0.412 1.239-0.664z"></path>
<path d="M10.021 27.685l-0.412-0.221 0.664-1.239 0.412 0.221-0.664 1.239z"></path>
<path d="M21.979 4.313l0.413 0.221-0.662 1.239-0.413-0.221 0.662-1.239z"></path>
<path d="M10.763 28.036l1.076-2.599 0.433 0.18-1.076 2.599-0.433-0.18z"></path>
<path d="M21.241 3.962l-1.076 2.599-0.433-0.18 1.076-2.599 0.433 0.18z"></path>
<path d="M12.415 28.628l-0.448-0.137 0.409-1.346 0.448 0.137-0.409 1.346z"></path>
<path d="M19.585 3.37l0.448 0.137-0.409 1.346-0.448-0.137 0.409-1.346z"></path>
<path d="M13.669 28.915l-0.459-0.092 0.549-2.758 0.459 0.092-0.549 2.758z"></path>
<path d="M18.331 3.079l0.459 0.092-0.549 2.758-0.459-0.092 0.549-2.758z"></path>
</svg>
