<!-- Generated by IcoMoon.io -->
<svg version="1.1" xmlns="http://www.w3.org/2000/svg" width="32" height="32" viewBox="0 0 32 32">
<title>search</title>
<path d="M30.080 26.537l-7.111-6.047c-0.735-0.662-1.522-0.964-2.156-0.936 1.679-1.966 2.692-4.516 2.692-7.304 0-6.218-5.040-11.258-11.258-11.258s-11.258 5.040-11.258 11.258 5.040 11.258 11.258 11.258c2.788 0 5.338-1.013 7.304-2.692-0.030 0.634 0.274 1.42 0.936 2.156l6.047 7.111c1.036 1.15 2.726 1.248 3.758 0.216s0.934-2.724-0.216-3.758zM12.247 19.753c-4.145 0-7.505-3.36-7.505-7.505s3.36-7.505 7.505-7.505 7.505 3.36 7.505 7.505-3.36 7.505-7.505 7.505z"></path>
</svg>
