<!-- Generated by IcoMoon.io -->
<svg version="1.1" xmlns="http://www.w3.org/2000/svg" width="32" height="32" viewBox="0 0 32 32">
<title>appleinc</title>
<path d="M24.189 16.939c-0.038-3.799 3.098-5.622 3.239-5.712-1.763-2.579-4.508-2.933-5.487-2.972-2.337-0.236-4.559 1.377-5.746 1.377-1.183 0-3.014-1.341-4.951-1.305-2.547 0.037-4.895 1.482-6.207 3.762-2.646 4.591-0.677 11.394 1.902 15.117 1.26 1.823 2.762 3.871 4.735 3.797 1.9-0.075 2.618-1.23 4.915-1.23s2.942 1.23 4.953 1.191c2.044-0.038 3.34-1.858 4.591-3.687 1.448-2.115 2.042-4.161 2.078-4.266-0.045-0.021-3.987-1.53-4.026-6.069zM20.413 5.789c1.046-1.27 1.753-3.032 1.56-4.791-1.508 0.062-3.336 1.005-4.418 2.273-0.971 1.125-1.821 2.92-1.594 4.643 1.684 0.131 3.404-0.855 4.45-2.123z"></path>
</svg>
