<!-- Generated by IcoMoon.io -->
<svg version="1.1" xmlns="http://www.w3.org/2000/svg" width="32" height="32" viewBox="0 0 32 32">
<title>android</title>
<path d="M27.253 12.249c-1.032 0-1.876 0.844-1.876 1.876v7.502c0 1.032 0.844 1.876 1.876 1.876s1.876-0.844 1.876-1.876v-7.502c0-1.032-0.844-1.876-1.876-1.876zM4.747 12.249c-1.032 0-1.876 0.844-1.876 1.876v7.502c0 1.032 0.844 1.876 1.876 1.876s1.876-0.844 1.876-1.876v-7.502c0-1.032-0.844-1.876-1.876-1.876zM7.56 22.564c0 1.553 1.26 2.813 2.813 2.813v0 3.751c0 1.032 0.844 1.876 1.876 1.876s1.876-0.844 1.876-1.876v-3.751h3.751v3.751c0 1.032 0.844 1.876 1.876 1.876s1.876-0.844 1.876-1.876v-3.751c1.553 0 2.813-1.26 2.813-2.813v-10.316h-16.88v10.316z"></path>
<path d="M24.387 10.373c-0.285-2.575-1.729-4.8-3.798-6.144l0.938-1.877c0.231-0.463 0.043-1.026-0.42-1.258s-1.026-0.043-1.259 0.42l-0.942 1.883-0.244-0.098c-0.837-0.278-1.733-0.429-2.663-0.429s-1.827 0.152-2.663 0.429l-0.244 0.098-0.942-1.883c-0.231-0.463-0.795-0.651-1.258-0.42s-0.651 0.795-0.42 1.258l0.938 1.877c-2.069 1.343-3.513 3.569-3.798 6.144v0.938h16.828v-0.938h-0.052zM13.187 8.498c-0.518 0-0.938-0.42-0.938-0.938s0.418-0.936 0.936-0.938c0 0 0.002 0 0.002 0s0.002 0 0.002 0c0.518 0.002 0.936 0.42 0.936 0.938s-0.42 0.938-0.938 0.938zM18.813 8.498c-0.518 0-0.938-0.42-0.938-0.938s0.418-0.936 0.936-0.938c0 0 0.002 0 0.002 0s0.002 0 0.004 0c0.518 0.002 0.936 0.42 0.936 0.938s-0.42 0.938-0.938 0.938z"></path>
</svg>
