<!-- Generated by IcoMoon.io -->
<svg version="1.1" xmlns="http://www.w3.org/2000/svg" width="32" height="32" viewBox="0 0 32 32">
<title>firefox</title>
<path d="M30.843 10.829l-0.344 2.212c0 0-0.493-4.096-1.098-5.627-0.927-2.346-1.338-2.328-1.34-2.324 0.62 1.576 0.508 2.423 0.508 2.423s-1.1-2.994-4.004-3.947c-3.217-1.055-4.959-0.767-5.16-0.713-0.030 0-0.060 0-0.087 0 0.024 0.002 0.047 0.004 0.071 0.006-0.002 0-0.002 0.002-0.002 0.002 0.013 0.017 3.556 0.62 4.185 1.483 0 0-1.505 0-3.003 0.432-0.067 0.019 5.51 0.696 6.65 6.271 0 0-0.612-1.277-1.368-1.492 0.497 1.513 0.37 4.384-0.104 5.811-0.061 0.184-0.123-0.793-1.057-1.213 0.3 2.142-0.019 5.538-1.503 6.474-0.115 0.073 0.93-3.353 0.21-2.028-4.149 6.362-9.054 2.936-11.259 1.427 1.13 0.246 3.275-0.039 4.226-0.744 0.002 0 0.002-0.002 0.004-0.002 1.031-0.705 1.641-1.221 2.19-1.098s0.914-0.428 0.488-0.917c-0.426-0.489-1.463-1.163-2.864-0.796-0.988 0.259-2.214 1.353-4.082 0.246-1.435-0.85-1.57-1.557-1.584-2.047 0.035-0.173 0.080-0.335 0.134-0.484 0.166-0.461 0.666-0.601 0.945-0.711 0.473 0.082 0.88 0.229 1.308 0.448 0.006-0.141 0.007-0.331 0-0.545 0.041-0.082 0.015-0.328-0.050-0.627-0.037-0.3-0.099-0.61-0.197-0.893 0 0 0 0 0 0s0.004-0.002 0.004-0.002c0.002-0.002 0.004-0.004 0.006-0.006s0-0.002 0.002-0.002c0.002-0.004 0.004-0.007 0.006-0.013 0.030-0.134 0.35-0.393 0.748-0.672 0.357-0.249 0.776-0.515 1.107-0.72 0.292-0.182 0.515-0.316 0.562-0.352 0.019-0.013 0.039-0.030 0.063-0.048 0.004-0.004 0.009-0.007 0.013-0.011s0.006-0.004 0.007-0.007c0.158-0.125 0.393-0.361 0.441-0.86 0-0.002 0-0.002 0-0.004 0.002-0.015 0.002-0.030 0.004-0.045 0-0.011 0.002-0.020 0.002-0.032 0-0.007 0-0.017 0.002-0.024 0-0.020 0.002-0.039 0.002-0.060 0-0.002 0-0.002 0-0.004 0-0.048 0-0.099-0.004-0.151-0.002-0.030-0.004-0.056-0.009-0.080 0-0.002 0-0.002 0-0.004s-0.002-0.006-0.002-0.007-0.002-0.009-0.004-0.013c0 0 0 0 0-0.002-0.002-0.006-0.004-0.009-0.006-0.013 0 0 0 0 0 0-0.050-0.119-0.242-0.164-1.031-0.179 0 0-0.002 0-0.002 0v0c-0.322-0.006-0.742-0.006-1.293-0.004-0.968 0.004-1.502-0.945-1.671-1.312 0.234-1.293 0.91-2.214 2.019-2.838 0.020-0.011 0.017-0.022-0.007-0.028 0.218-0.132-2.624-0.004-3.93 1.658-1.159-0.288-2.17-0.268-3.042-0.065-0.167-0.006-0.376-0.026-0.623-0.076-0.579-0.525-1.409-1.494-1.453-2.652 0 0-0.002 0.002-0.007 0.006 0-0.011-0.002-0.022-0.002-0.034 0 0-1.766 1.357-1.502 5.056 0 0.060-0.002 0.115-0.004 0.171-0.478 0.648-0.715 1.193-0.733 1.314-0.424 0.862-0.852 2.159-1.202 4.127 0 0 0.244-0.776 0.735-1.654-0.361 1.105-0.644 2.825-0.478 5.404 0 0 0.045-0.571 0.199-1.396 0.121 1.6 0.655 3.575 2.002 5.897 2.586 4.458 6.561 6.708 10.954 7.054 0.78 0.065 1.572 0.065 2.367 0.006 0.073-0.006 0.147-0.011 0.22-0.017 0.901-0.063 1.807-0.199 2.711-0.417 12.361-2.988 11.018-17.915 11.018-17.915z"></path>
</svg>
