<!-- Generated by IcoMoon.io -->
<svg version="1.1" xmlns="http://www.w3.org/2000/svg" width="32" height="32" viewBox="0 0 32 32">
<title>info</title>
<path d="M14.125 9.906c0-0.773 0.634-1.406 1.406-1.406h0.938c0.773 0 1.406 0.634 1.406 1.406v0.938c0 0.773-0.634 1.406-1.406 1.406h-0.938c-0.773 0-1.406-0.634-1.406-1.406v-0.938z"></path>
<path d="M19.75 23.5h-7.5v-1.875h1.875v-5.625h-1.875v-1.875h5.625v7.5h1.875z"></path>
<path d="M16 1c-8.284 0-15 6.716-15 15s6.716 15 15 15 15-6.716 15-15-6.716-15-15-15zM16 28.188c-6.731 0-12.188-5.456-12.188-12.188s5.456-12.188 12.188-12.188 12.188 5.456 12.188 12.188-5.456 12.188-12.188 12.188z"></path>
</svg>
