<!-- Generated by IcoMoon.io -->
<svg version="1.1" xmlns="http://www.w3.org/2000/svg" width="32" height="32" viewBox="0 0 32 32">
<title>cancel-circle</title>
<path d="M16 1c-8.284 0-15 6.716-15 15s6.716 15 15 15 15-6.716 15-15-6.716-15-15-15zM16 28.188c-6.731 0-12.188-5.456-12.188-12.188s5.456-12.188 12.188-12.188 12.188 5.456 12.188 12.188-5.456 12.188-12.188 12.188z"></path>
<path d="M20.688 8.5l-4.688 4.688-4.688-4.688-2.813 2.813 4.688 4.688-4.688 4.688 2.813 2.813 4.688-4.688 4.688 4.688 2.813-2.813-4.688-4.688 4.688-4.688z"></path>
</svg>
