<!-- Generated by IcoMoon.io -->
<svg version="1.1" xmlns="http://www.w3.org/2000/svg" width="32" height="32" viewBox="0 0 32 32">
<title>user</title>
<path d="M24.38 13.607h-0.002c0.324-0.923 0.508-1.908 0.508-2.94 0-4.908-3.979-8.889-8.889-8.889s-8.889 3.98-8.889 8.889c0 1.033 0.185 2.018 0.508 2.94v0c-3.463 1.762-5.842 5.351-5.842 9.502v5.333c0 0.983 0.796 1.78 1.78 1.78h24.884c0.983 0 1.78-0.796 1.78-1.78v-5.333c0-4.153-2.377-7.74-5.842-9.502zM16 5.333c2.94 0 5.333 2.393 5.333 5.333s-2.393 5.333-5.333 5.333c-2.94 0-5.333-2.393-5.333-5.333s2.393-5.333 5.333-5.333zM26.667 26.667h-21.333v-3.557c0-2.852 1.692-5.31 4.121-6.443 1.625 1.772 3.952 2.889 6.546 2.889s4.921-1.116 6.546-2.889c2.428 1.131 4.121 3.591 4.121 6.443v3.557z"></path>
</svg>
