<!-- Generated by IcoMoon.io -->
<svg version="1.1" xmlns="http://www.w3.org/2000/svg" width="32" height="32" viewBox="0 0 32 32">
<title>cloud-check</title>
<path d="M26.696 16.070c0.068-0.313 0.104-0.637 0.104-0.97 0-2.486-2.014-4.5-4.5-4.5-0.4 0-0.788 0.052-1.157 0.151-0.697-2.176-2.736-3.751-5.143-3.751-2.457 0-4.529 1.64-5.184 3.886-0.639-0.185-1.316-0.286-2.016-0.286-3.976 0-7.2 3.224-7.2 7.2s3.224 7.2 7.2 7.2h17.1c2.486 0 4.5-2.014 4.5-4.5 0-2.214-1.598-4.054-3.704-4.43zM13.3 23.2l-4.5-4.5 1.8-1.8 2.7 2.7 6.3-6.3 1.8 1.8-8.1 8.1z"></path>
</svg>
