<!-- Generated by IcoMoon.io -->
<svg version="1.1" xmlns="http://www.w3.org/2000/svg" width="32" height="32" viewBox="0 0 32 32">
<title>edge</title>
<path d="M2.131 14.413c0.881-6.953 5.626-13.26 14.13-13.348 5.132 0.1 9.355 2.426 11.869 6.859 1.263 2.313 1.656 4.745 1.738 7.429v3.153h-18.869c0.088 7.782 11.452 7.517 16.344 4.087v6.337c-2.866 1.721-9.366 3.259-14.399 1.28-4.287-1.609-7.34-6.096-7.323-10.413-0.141-5.596 2.783-9.302 7.323-11.411-0.964 1.191-1.697 2.507-2.078 4.786h10.653c0 0 0.622-6.367-6.030-6.367-6.273 0.218-10.794 3.864-13.354 7.605v0z"></path>
</svg>
