<!-- Generated by IcoMoon.io -->
<svg version="1.1" xmlns="http://www.w3.org/2000/svg" width="32" height="32" viewBox="0 0 32 32">
<title>cancel</title>
<path d="M16 1c-8.284 0-15 6.716-15 15s6.716 15 15 15 15-6.716 15-15-6.716-15-15-15zM4.75 16c0-2.426 0.78-4.671 2.092-6.51l15.668 15.668c-1.839 1.313-4.084 2.093-6.51 2.093-6.204 0-11.25-5.046-11.25-11.25zM25.157 22.51l-15.668-15.668c1.839-1.313 4.084-2.092 6.51-2.092 6.204 0 11.25 5.046 11.25 11.25 0 2.426-0.78 4.671-2.093 6.51z"></path>
</svg>
