<!-- Generated by IcoMoon.io -->
<svg version="1.1" xmlns="http://www.w3.org/2000/svg" width="32" height="32" viewBox="0 0 32 32">
<title>twitter</title>
<path d="M30.769 6.842c-1.087 0.482-2.254 0.808-3.479 0.954 1.251-0.749 2.209-1.938 2.663-3.35-1.174 0.694-2.47 1.198-3.85 1.471-1.106-1.179-2.678-1.914-4.422-1.914-3.346 0-6.060 2.713-6.060 6.058 0 0.474 0.054 0.938 0.157 1.381-5.035-0.253-9.5-2.665-12.488-6.331-0.522 0.893-0.82 1.934-0.82 3.046 0 2.102 1.071 3.957 2.695 5.043-0.993-0.033-1.927-0.306-2.745-0.76v0.076c0 2.935 2.089 5.384 4.86 5.942-0.508 0.137-1.043 0.212-1.597 0.212-0.391 0-0.77-0.039-1.141-0.113 0.771 2.409 3.009 4.16 5.659 4.208-2.073 1.624-4.686 2.59-7.525 2.59-0.489 0-0.971-0.030-1.445-0.083 2.682 1.722 5.866 2.726 9.288 2.726 11.147 0 17.239-9.233 17.239-17.239l-0.020-0.784c1.19-0.849 2.22-1.916 3.031-3.13z"></path>
</svg>
