<!-- Generated by IcoMoon.io -->
<svg version="1.1" xmlns="http://www.w3.org/2000/svg" width="32" height="32" viewBox="0 0 32 32">
<title>mail4</title>
<path d="M16 1c-8.284 0-15 6.716-15 15s6.716 15 15 15 15-6.716 15-15-6.716-15-15-15zM8.5 8.5h15c0.268 0 0.527 0.058 0.767 0.165l-8.267 9.643-8.267-9.643c0.238-0.109 0.499-0.165 0.767-0.165zM6.625 21.625v-11.25c0-0.039 0.002-0.079 0.004-0.118l5.497 6.414-5.438 5.438c-0.043-0.156-0.064-0.319-0.064-0.484zM23.5 23.5h-15c-0.165 0-0.328-0.023-0.484-0.064l5.336-5.336 2.649 3.090 2.649-3.090 5.336 5.336c-0.156 0.043-0.319 0.064-0.484 0.064zM25.375 21.625c0 0.165-0.023 0.328-0.064 0.484l-5.438-5.438 5.497-6.414c0.002 0.039 0.004 0.079 0.004 0.118v11.25z"></path>
</svg>
