<!-- Generated by IcoMoon.io -->
<svg version="1.1" xmlns="http://www.w3.org/2000/svg" width="32" height="32" viewBox="0 0 32 32">
<title>cloud</title>
<path d="M30.223 19.154c0-2.281-1.575-4.192-3.694-4.708-0.091-3.575-3.013-6.446-6.608-6.446-2.105 0-3.98 0.987-5.191 2.521-0.679-0.878-1.742-1.444-2.937-1.444-2.050 0-3.712 1.664-3.712 3.714 0 0.18 0.012 0.354 0.037 0.526-0.311-0.057-0.633-0.087-0.96-0.087-2.972 0-5.381 2.411-5.381 5.385s2.409 5.385 5.381 5.385h18.229c2.67-0.005 4.834-2.172 4.834-4.846z"></path>
</svg>
