<!-- Generated by IcoMoon.io -->
<svg version="1.1" xmlns="http://www.w3.org/2000/svg" width="32" height="32" viewBox="0 0 32 32">
<title>contribute</title>
<path d="M5.798 23.962h8.218v-0.179c-0.128-2.79-0.87-5.453-2.202-7.347-1.075-1.536-2.304-2.202-3.891-0.23-1.382 1.715-2.15 4.378-2.15 7.168v0.589z"></path>
<path d="M12.173 12.006c0 1.244-1.009 2.253-2.253 2.253s-2.253-1.009-2.253-2.253c0-1.244 1.009-2.253 2.253-2.253s2.253 1.009 2.253 2.253z"></path>
<path d="M11.43 23.962h9.216v-0.205c-0.128-3.149-0.973-6.118-2.458-8.243-1.203-1.741-2.56-2.483-4.352-0.282-1.536 1.92-2.406 4.915-2.406 8.013v0.717z"></path>
<path d="M18.573 10.573c0 1.4-1.135 2.534-2.534 2.534s-2.534-1.135-2.534-2.534c0-1.4 1.135-2.534 2.534-2.534s2.534 1.135 2.534 2.534z"></path>
<path d="M18.010 23.962h8.218v-0.179c-0.128-2.79-0.87-5.453-2.202-7.347-1.075-1.536-2.304-2.202-3.891-0.23-1.382 1.715-2.15 4.378-2.15 7.168v0.589z"></path>
<path d="M24.358 12.006c0 1.244-1.009 2.253-2.253 2.253s-2.253-1.009-2.253-2.253c0-1.244 1.009-2.253 2.253-2.253s2.253 1.009 2.253 2.253z"></path>
</svg>
