<!-- Generated by IcoMoon.io -->
<svg version="1.1" xmlns="http://www.w3.org/2000/svg" width="32" height="32" viewBox="0 0 32 32">
<title>tux</title>
<path d="M17.635 22.604c-2.405 1.12-4.644 1.107-6.147 1-1.793-0.13-3.234-0.62-3.868-1.049-0.391-0.265-0.921-0.162-1.186 0.229s-0.162 0.921 0.229 1.186c1.019 0.69 2.821 1.203 4.704 1.338 0.319 0.023 0.669 0.038 1.047 0.038 1.639 0 3.719-0.156 5.944-1.191 0.428-0.199 0.613-0.707 0.413-1.135s-0.707-0.613-1.135-0.413zM27.127 21.339c0.083-7.419 0.844-21.441-13.36-20.308-14.025 1.129-10.306 15.944-10.515 20.905-0.186 2.625-1.056 5.833-2.287 9.098h3.791c0.389-1.383 0.677-2.751 0.799-4.057 0.229 0.16 0.474 0.314 0.735 0.46 0.425 0.25 0.789 0.583 1.176 0.934 0.902 0.823 1.926 1.755 3.926 1.872 0.133 0.008 0.269 0.011 0.402 0.011 2.024 0 3.407-0.885 4.518-1.597 0.532-0.34 0.992-0.635 1.426-0.776 1.231-0.385 2.306-1.007 3.11-1.799 0.126-0.124 0.242-0.25 0.351-0.38 0.447 1.641 1.060 3.488 1.74 5.33h8.094c-1.943-3.001-3.948-5.942-3.907-9.695zM4.61 17.302c0 0 0 0 0-0.002-0.139-2.421 1.019-4.458 2.588-4.55s2.952 1.799 3.091 4.219c0 0 0 0 0 0.002 0.008 0.13 0.011 0.259 0.011 0.387-0.496 0.124-0.945 0.306-1.347 0.517-0.002-0.019-0.002-0.036-0.004-0.055 0 0 0 0 0 0-0.133-1.374-0.868-2.413-1.641-2.319s-1.289 1.285-1.154 2.659c0 0 0 0 0 0 0.058 0.599 0.231 1.135 0.472 1.539-0.060 0.047-0.229 0.171-0.423 0.312-0.147 0.107-0.323 0.237-0.537 0.395-0.584-0.767-0.985-1.866-1.056-3.11zM20.501 23.288c-0.056 1.28-1.729 2.484-3.276 2.967l-0.009 0.004c-0.643 0.209-1.216 0.575-1.823 0.964-1.020 0.652-2.075 1.327-3.597 1.327-0.1 0-0.203-0.004-0.303-0.009-1.394-0.081-2.048-0.677-2.873-1.43-0.436-0.396-0.887-0.808-1.468-1.148l-0.013-0.008c-1.253-0.709-2.032-1.588-2.082-2.355-0.024-0.381 0.145-0.71 0.504-0.981 0.782-0.586 1.306-0.97 1.652-1.223 0.385-0.282 0.502-0.366 0.588-0.449 0.062-0.058 0.128-0.122 0.199-0.194 0.718-0.697 1.919-1.866 3.762-1.866 1.128 0 2.375 0.434 3.704 1.289 0.626 0.408 1.171 0.596 1.861 0.834 0.474 0.163 1.013 0.35 1.733 0.658l0.011 0.006c0.671 0.276 1.466 0.78 1.428 1.612zM20.131 20.281c-0.13-0.066-0.263-0.128-0.404-0.184-0.648-0.278-1.169-0.466-1.601-0.616 0.239-0.466 0.387-1.049 0.4-1.68 0 0 0 0 0 0 0.034-1.537-0.742-2.787-1.733-2.789s-1.819 1.242-1.853 2.779c0 0 0 0 0 0-0.002 0.051-0.002 0.1 0 0.15-0.609-0.28-1.208-0.485-1.797-0.609-0.002-0.058-0.006-0.115-0.008-0.173 0 0 0-0.002 0-0.002-0.056-2.802 1.661-5.121 3.839-5.179s3.988 2.165 4.046 4.965c0 0 0 0.002 0 0.002 0.026 1.267-0.314 2.434-0.893 3.338z"></path>
</svg>
