<?xml version="1.0" encoding="UTF-8" standalone="no"?>
<svg width="330px" height="220px" viewBox="0 0 330 220" version="1.1" xmlns="http://www.w3.org/2000/svg" xmlns:xlink="http://www.w3.org/1999/xlink">
    <!-- Generator: Sketch 46.2 (44496) - http://www.bohemiancoding.com/sketch -->
    <title>Upload icon</title>
    <desc>Created with Sketch.</desc>
    <defs></defs>
    <g id="Symbols" stroke="none" stroke-width="1" fill="none" fill-rule="evenodd">
        <g id="Upload-icon" fill="#000000">
            <path d="M266.75,137.5 C257.125,184.25 215.875,220 165,220 C125.125,220 90.75,198 74.25,165 C31.625,159.5 0,125.125 0,82.5 C0,37.125 37.125,0 82.5,0 L261.25,0 C299.75,0 330,30.25 330,68.75 C330,104.5 301.125,134.75 266.75,137.5 L266.75,137.5 Z M192.5,96.25 L192.5,41.25 L137.5,41.25 L137.5,96.25 L96.25,96.25 L165,165 L233.75,96.25 L192.5,96.25 L192.5,96.25 Z" transform="translate(165.000000, 110.000000) scale(1, -1) translate(-165.000000, -110.000000) "></path>
        </g>
    </g>
</svg>