<!-- Generated by IcoMoon.io -->
<svg version="1.1" xmlns="http://www.w3.org/2000/svg" width="32" height="32" viewBox="0 0 32 32">
<title>users</title>
<path d="M25.956 12.444h-0.249c0.606-1.047 0.96-2.258 0.96-3.556 0-3.927-3.184-7.111-7.111-7.111s-7.111 3.184-7.111 7.111c-3.927 0-7.111 3.184-7.111 7.111 0 1.296 0.352 2.508 0.96 3.556h-0.249c-2.533 1.134-4.267 3.564-4.267 6.156v2.732c0 0.624 0.985 1.778 1.723 1.778h18.055c0.738 0 1.556-1.154 1.556-1.778v-2.732c0-0.905-0.222-1.785-0.604-2.601h6.16c0.738 0 1.556-1.154 1.556-1.778v-2.732c0-2.592-1.733-5.022-4.267-6.156zM19.556 5.333c1.961 0 3.556 1.595 3.556 3.556s-1.595 3.556-3.556 3.556c-0.375 0-0.731-0.075-1.070-0.183-0.58-0.935-1.369-1.723-2.304-2.302-0.108-0.34-0.183-0.695-0.183-1.070 0-1.961 1.595-3.556 3.556-3.556zM12.444 12.444c1.964 0 3.556 1.593 3.556 3.556s-1.593 3.556-3.556 3.556c-1.756 0-3.209-1.278-3.495-2.953-0.037-0.196-0.060-0.395-0.060-0.603 0-1.964 1.593-3.556 3.556-3.556zM19.556 26.667h-14.222v-0.955c0-0.965 0.633-1.968 1.596-2.601h11.028c0.964 0.633 1.596 1.636 1.596 2.601v0.955zM26.667 19.556h-8.071c0.606-1.047 0.96-2.258 0.96-3.556h5.515c0.964 0.633 1.596 1.636 1.596 2.601v0.955z"></path>
</svg>
