<!-- Generated by IcoMoon.io -->
<svg version="1.1" xmlns="http://www.w3.org/2000/svg" width="18" height="18" viewBox="0 0 18 18">
<title>users</title>
<path d="M14.6 7h-0.14c0.341-0.589 0.54-1.27 0.54-2 0-2.209-1.791-4-4-4s-4 1.791-4 4c-2.209 0-4 1.791-4 4 0 0.729 0.198 1.411 0.54 2h-0.14c-1.425 0.638-2.4 2.005-2.4 3.463v1.537c0 0.351 0.554 1 0.969 1h10.156c0.415 0 0.875-0.649 0.875-1v-1.537c0-0.509-0.125-1.004-0.34-1.463h3.465c0.415 0 0.875-0.649 0.875-1v-1.537c0-1.458-0.975-2.825-2.4-3.463zM11 3c1.103 0 2 0.897 2 2s-0.897 2-2 2c-0.211 0-0.411-0.042-0.602-0.103-0.326-0.526-0.77-0.969-1.296-1.295-0.061-0.191-0.103-0.391-0.103-0.602 0-1.103 0.897-2 2-2zM7 7c1.105 0 2 0.896 2 2s-0.896 2-2 2c-0.988 0-1.805-0.719-1.966-1.661-0.021-0.11-0.034-0.222-0.034-0.339 0-1.105 0.896-2 2-2zM11 15h-8v-0.537c0-0.543 0.356-1.107 0.898-1.463h6.203c0.542 0.356 0.898 0.92 0.898 1.463v0.537zM15 11h-4.54c0.341-0.589 0.54-1.27 0.54-2h3.102c0.542 0.356 0.898 0.92 0.898 1.463v0.537z"></path>
</svg>
